<svg width="263" height="158" viewBox="0 0 263 158" fill="none" xmlns="http://www.w3.org/2000/svg">
<path d="M125.57 121.575H124.812C124.834 120.795 125.094 120.154 125.591 119.652C126.093 119.151 126.71 118.9 127.444 118.9C128.171 118.9 128.758 119.135 129.206 119.604C129.657 120.073 129.883 120.626 129.883 121.264C129.883 121.711 129.775 122.132 129.561 122.526C129.346 122.916 128.929 123.446 128.309 124.116L126.343 126.237H129.99V127H124.625L127.643 123.74C128.255 123.084 128.653 122.599 128.835 122.284C129.022 121.965 129.115 121.631 129.115 121.28C129.115 120.836 128.948 120.454 128.615 120.136C128.286 119.813 127.881 119.652 127.401 119.652C126.896 119.652 126.476 119.821 126.139 120.157C125.806 120.494 125.616 120.966 125.57 121.575ZM130.748 123.052C130.748 122.01 130.859 121.205 131.081 120.635C131.306 120.066 131.623 119.634 132.031 119.341C132.439 119.047 132.896 118.9 133.401 118.9C133.913 118.9 134.377 119.049 134.792 119.346C135.207 119.64 135.535 120.082 135.775 120.673C136.018 121.264 136.14 122.057 136.14 123.052C136.14 124.044 136.02 124.834 135.78 125.421C135.544 126.008 135.216 126.452 134.797 126.753C134.378 127.05 133.913 127.199 133.401 127.199C132.896 127.199 132.441 127.054 132.037 126.764C131.632 126.474 131.315 126.042 131.086 125.469C130.86 124.893 130.748 124.087 130.748 123.052ZM131.494 123.068C131.494 123.96 131.573 124.635 131.73 125.093C131.892 125.548 132.128 125.894 132.439 126.13C132.751 126.366 133.08 126.484 133.428 126.484C133.779 126.484 134.106 126.37 134.411 126.141C134.715 125.908 134.946 125.561 135.104 125.099C135.3 124.536 135.399 123.86 135.399 123.068C135.399 122.273 135.311 121.624 135.136 121.119C134.96 120.61 134.717 120.24 134.405 120.007C134.097 119.771 133.771 119.652 133.428 119.652C133.077 119.652 132.747 119.771 132.439 120.007C132.132 120.24 131.897 120.585 131.736 121.043C131.575 121.498 131.494 122.173 131.494 123.068ZM137.773 121.575H137.016C137.037 120.795 137.297 120.154 137.794 119.652C138.296 119.151 138.913 118.9 139.647 118.9C140.374 118.9 140.962 119.135 141.409 119.604C141.86 120.073 142.086 120.626 142.086 121.264C142.086 121.711 141.979 122.132 141.764 122.526C141.549 122.916 141.132 123.446 140.512 124.116L138.546 126.237H142.193V127H136.828L139.846 123.74C140.458 123.084 140.856 122.599 141.039 122.284C141.225 121.965 141.318 121.631 141.318 121.28C141.318 120.836 141.151 120.454 140.818 120.136C140.489 119.813 140.084 119.652 139.604 119.652C139.1 119.652 138.679 119.821 138.342 120.157C138.009 120.494 137.819 120.966 137.773 121.575ZM146.635 118.9L147.285 119.325L145.153 122.558C145.439 122.461 145.708 122.413 145.958 122.413C146.585 122.413 147.117 122.64 147.554 123.095C147.991 123.546 148.209 124.103 148.209 124.766C148.209 125.22 148.103 125.632 147.892 126.001C147.681 126.366 147.38 126.658 146.99 126.876C146.603 127.091 146.186 127.199 145.738 127.199C145.305 127.199 144.902 127.095 144.53 126.887C144.161 126.676 143.871 126.381 143.66 126.001C143.448 125.621 143.343 125.215 143.343 124.782C143.343 124.459 143.407 124.121 143.536 123.767C143.669 123.409 143.903 122.979 144.24 122.478L146.635 118.9ZM145.771 123.106C145.312 123.106 144.92 123.269 144.594 123.595C144.272 123.917 144.111 124.309 144.111 124.771C144.111 125.229 144.272 125.621 144.594 125.947C144.92 126.27 145.312 126.431 145.771 126.431C146.229 126.431 146.619 126.27 146.941 125.947C147.267 125.621 147.43 125.229 147.43 124.771C147.43 124.309 147.267 123.917 146.941 123.595C146.619 123.269 146.229 123.106 145.771 123.106Z" fill="#000D1A"/>
<path d="M99 105.6C103.5 105.6 107.175 106.15 110.025 107.25C112.925 108.35 115.05 109.725 116.4 111.375C117.8 113.075 118.425 114.875 118.275 116.775C118.175 118.725 117.4 120.525 115.95 122.175C114.55 123.875 112.475 125.275 109.725 126.375C107.025 127.475 103.725 128.025 99.825 128.025C96.925 128.025 94.25 127.65 91.8 126.9C89.4 126.15 87.2 125.125 85.2 123.825C83.25 122.525 81.525 120.975 80.025 119.175C78.575 117.425 77.35 115.5 76.35 113.4C73.9 114.7 71.425 116.025 68.925 117.375C66.425 118.725 63.875 119.925 61.275 120.975C58.725 122.075 56.1 122.975 53.4 123.675C50.75 124.375 47.975 124.725 45.075 124.725C40.525 124.725 36.575 124 33.225 122.55C29.925 121.15 27.175 119.275 24.975 116.925C22.825 114.625 21.225 111.975 20.175 108.975C19.125 106.025 18.625 102.975 18.675 99.825C18.775 96.725 19.375 93.7 20.475 90.75C21.625 87.75 23.275 85.1 25.425 82.8C27.625 80.45 30.3 78.575 33.45 77.175C36.65 75.725 40.325 75 44.475 75C46.725 75 49.075 75.225 51.525 75.675C54.025 76.125 56.65 76.85 59.4 77.85L59.1 78.6C54.05 76.85 49.375 75.975 45.075 75.975C41.275 75.975 37.925 76.6 35.025 77.85C32.125 79.05 29.675 80.65 27.675 82.65C25.675 84.6 24.15 86.85 23.1 89.4C22.05 91.95 21.475 94.55 21.375 97.2C21.275 99.85 21.65 102.45 22.5 105C23.4 107.55 24.8 109.8 26.7 111.75C28.6 113.75 31 115.35 33.9 116.55C36.85 117.8 40.325 118.425 44.325 118.425C46.875 118.425 49.4 118.175 51.9 117.675C54.4 117.175 56.925 116.525 59.475 115.725C62.025 114.925 64.575 114.025 67.125 113.025C69.725 112.075 72.375 111.15 75.075 110.25C74.225 107.7 73.725 105.075 73.575 102.375C73.425 99.725 73.625 97.075 74.175 94.425C71.775 92.125 69.825 89.175 68.325 85.575C66.875 81.975 66.15 77.7 66.15 72.75C66.15 68.1 66.85 64.075 68.25 60.675C69.7 57.275 71.6 54.475 73.95 52.275C76.35 50.025 79.05 48.375 82.05 47.325C85.1 46.225 88.225 45.675 91.425 45.675C95.025 45.675 98.55 46.325 102 47.625C105.45 48.925 108.525 50.825 111.225 53.325L105.75 65.325H105.525C106.275 62.425 106.4 59.85 105.9 57.6C105.4 55.3 104.5 53.375 103.2 51.825C101.9 50.225 100.275 49 98.325 48.15C96.375 47.3 94.325 46.875 92.175 46.875C89.875 46.875 87.575 47.375 85.275 48.375C82.975 49.375 80.9 50.925 79.05 53.025C77.2 55.125 75.675 57.8 74.475 61.05C73.325 64.3 72.75 68.2 72.75 72.75C72.75 75.85 73.075 78.625 73.725 81.075C74.425 83.525 75.35 85.7 76.5 87.6C77.55 85.35 78.9 83.275 80.55 81.375C82.25 79.475 84.25 77.825 86.55 76.425C88.9 75.025 91.55 73.925 94.5 73.125C97.45 72.325 100.725 71.925 104.325 71.925H114.45V95.4C114.5 96.6 114.725 97.4 115.125 97.8C115.525 98.2 116.125 98.5 116.925 98.7V99H105.675V98.7C106.525 98.45 107.15 98.125 107.55 97.725C107.95 97.275 108.15 96.375 108.15 95.025V83.1C107.35 85.95 106.25 88.45 104.85 90.6C103.45 92.75 101.85 94.55 100.05 96C98.3 97.4 96.375 98.45 94.275 99.15C92.225 99.85 90.15 100.2 88.05 100.2C85.9 100.2 83.775 99.825 81.675 99.075C79.575 98.375 77.6 97.3 75.75 95.85C75.35 98.2 75.225 100.55 75.375 102.9C75.525 105.25 75.95 107.525 76.65 109.725C80.1 108.575 83.675 107.6 87.375 106.8C91.075 106 94.95 105.6 99 105.6ZM104.325 73.125C100.875 73.125 97.725 73.55 94.875 74.4C92.075 75.25 89.55 76.4 87.3 77.85C85.1 79.3 83.2 81.025 81.6 83.025C80 85.025 78.7 87.15 77.7 89.4C79.45 91.65 81.45 93.35 83.7 94.5C86 95.6 88.35 96.15 90.75 96.15C92.9 96.15 95 95.675 97.05 94.725C99.15 93.775 101 92.35 102.6 90.45C104.2 88.55 105.5 86.175 106.5 83.325C107.55 80.425 108.1 77.025 108.15 73.125H104.325ZM99.825 126.075C102.475 126.075 104.7 125.575 106.5 124.575C108.35 123.625 109.75 122.425 110.7 120.975C111.7 119.525 112.225 117.95 112.275 116.25C112.325 114.55 111.875 112.975 110.925 111.525C110.025 110.075 108.575 108.85 106.575 107.85C104.625 106.9 102.1 106.425 99 106.425C95.2 106.425 91.55 107.025 88.05 108.225C84.6 109.425 81.175 110.9 77.775 112.65C78.675 114.6 79.8 116.375 81.15 117.975C82.5 119.625 84.1 121.05 85.95 122.25C87.8 123.45 89.875 124.375 92.175 125.025C94.475 125.725 97.025 126.075 99.825 126.075ZM150.803 95.775C150.853 96.825 151.003 97.575 151.253 98.025C151.553 98.475 152.228 98.7 153.278 98.7V98.925H149.003C147.853 98.925 146.878 98.525 146.078 97.725C145.278 96.925 144.878 95.95 144.878 94.8V91.05C144.278 92.5 143.503 93.775 142.553 94.875C141.603 95.925 140.528 96.825 139.328 97.575C138.178 98.275 136.953 98.8 135.653 99.15C134.353 99.5 133.053 99.675 131.753 99.675C130.353 99.675 129.003 99.475 127.703 99.075C126.403 98.675 125.253 98.1 124.253 97.35C123.303 96.55 122.528 95.6 121.928 94.5C121.328 93.35 121.028 92.05 121.028 90.6C121.028 88.75 121.603 87.15 122.753 85.8C123.903 84.4 125.328 83.2 127.028 82.2C128.728 81.15 130.578 80.25 132.578 79.5C134.628 78.7 136.528 77.975 138.278 77.325C140.028 76.625 141.503 75.95 142.703 75.3C143.903 74.65 144.553 73.9 144.653 73.05C144.153 70.9 143.078 69.325 141.428 68.325C139.778 67.275 137.753 66.75 135.353 66.75C133.753 66.75 132.053 66.975 130.253 67.425C128.503 67.875 126.703 68.55 124.853 69.45L124.553 68.85C127.303 67 129.978 65.625 132.578 64.725C135.178 63.775 137.603 63.3 139.853 63.3C143.103 63.3 145.728 64.3 147.728 66.3C149.778 68.25 150.803 71.225 150.803 75.225V95.775ZM144.878 75.6V74.775C144.428 75.575 143.678 76.3 142.628 76.95C141.628 77.55 140.478 78.15 139.178 78.75C137.878 79.3 136.528 79.875 135.128 80.475C133.728 81.025 132.453 81.7 131.303 82.5C130.153 83.3 129.203 84.225 128.453 85.275C127.703 86.325 127.328 87.575 127.328 89.025C127.328 91.475 128.078 93.325 129.578 94.575C131.078 95.775 132.803 96.375 134.753 96.375C135.953 96.375 137.153 96.15 138.353 95.7C139.553 95.2 140.628 94.475 141.578 93.525C142.578 92.525 143.378 91.325 143.978 89.925C144.578 88.475 144.878 86.775 144.878 84.825V75.6ZM166.202 95.7C166.202 96.85 166.327 97.65 166.577 98.1C166.877 98.55 167.577 98.775 168.677 98.775V99H157.802V98.775C159.002 98.775 159.702 98.5 159.902 97.95C160.152 97.35 160.277 96.375 160.277 95.025V50.475C160.277 49.125 160.152 48.175 159.902 47.625C159.702 47.025 159.002 46.725 157.802 46.725V46.5H166.202V95.7ZM243.301 109.35L243.601 109.5C243.051 112 242.126 114.1 240.826 115.8C239.526 117.5 238.001 118.875 236.251 119.925C234.551 121.025 232.726 121.8 230.776 122.25C228.876 122.75 227.051 123 225.301 123C222.801 123 220.351 122.55 217.951 121.65C215.551 120.8 213.101 119.7 210.601 118.35C208.101 117 205.526 115.525 202.876 113.925C200.226 112.375 197.401 110.925 194.401 109.575C193.551 111.775 192.401 113.875 190.951 115.875C189.501 117.925 187.751 119.7 185.701 121.2C183.701 122.75 181.401 123.975 178.801 124.875C176.201 125.825 173.326 126.3 170.176 126.3C166.276 126.3 163.026 125.75 160.426 124.65C157.776 123.55 155.826 122.15 154.576 120.45C153.276 118.8 152.651 117 152.701 115.05C152.751 113.15 153.551 111.35 155.101 109.65C156.601 108 158.851 106.625 161.851 105.525C164.801 104.425 168.526 103.875 173.026 103.875C177.276 103.875 181.126 104.175 184.576 104.775C188.076 105.425 191.326 106.25 194.326 107.25C194.976 105.25 195.351 103.225 195.451 101.175C195.551 99.175 195.376 97.325 194.926 95.625C194.476 93.875 193.726 92.325 192.676 90.975C191.676 89.625 190.376 88.6 188.776 87.9C190.076 88.7 190.901 89.775 191.251 91.125C191.651 92.475 191.626 93.775 191.176 95.025C190.726 96.275 189.876 97.375 188.626 98.325C187.376 99.225 185.726 99.675 183.676 99.675C182.376 99.675 181.076 99.475 179.776 99.075C178.526 98.725 177.401 98.175 176.401 97.425C175.451 96.675 174.676 95.75 174.076 94.65C173.476 93.5 173.176 92.175 173.176 90.675C173.176 88.825 173.751 87.225 174.901 85.875C176.051 84.475 177.476 83.275 179.176 82.275C180.876 81.225 182.726 80.325 184.726 79.575C186.776 78.775 188.651 78.05 190.351 77.4C192.101 76.7 193.576 76.025 194.776 75.375C195.976 74.675 196.626 73.9 196.726 73.05C196.226 70.9 195.151 69.325 193.501 68.325C191.851 67.275 189.851 66.75 187.501 66.75C185.901 66.75 184.201 66.975 182.401 67.425C180.651 67.875 178.826 68.55 176.926 69.45L176.626 68.85C179.376 67 182.051 65.625 184.651 64.725C187.251 63.825 189.676 63.375 191.926 63.375C195.226 63.375 197.876 64.375 199.876 66.375C201.926 68.325 202.951 71.3 202.951 75.3V95.775C202.951 96.875 203.076 97.65 203.326 98.1C203.626 98.55 204.301 98.775 205.351 98.775V98.925H201.151C200.001 98.925 199.026 98.525 198.226 97.725C197.426 96.925 197.026 95.95 197.026 94.8V75.6C197.026 75.25 197.001 74.975 196.951 74.775C196.551 75.575 195.826 76.3 194.776 76.95C193.726 77.55 192.551 78.15 191.251 78.75C190.001 79.3 188.676 79.875 187.276 80.475C185.876 81.075 184.601 81.775 183.451 82.575C182.301 83.325 181.351 84.25 180.601 85.35C179.851 86.4 179.476 87.65 179.476 89.1C179.476 91.45 180.001 93.2 181.051 94.35C182.101 95.45 183.501 96 185.251 96C186.751 96 187.901 95.525 188.701 94.575C189.551 93.625 189.951 92.6 189.901 91.5C189.851 90.35 189.326 89.3 188.326 88.35C187.376 87.4 185.876 86.925 183.826 86.925V86.1C186.576 86.1 188.851 86.725 190.651 87.975C192.451 89.225 193.826 90.875 194.776 92.925C195.726 94.925 196.226 97.2 196.276 99.75C196.326 102.3 195.951 104.875 195.151 107.475C198.001 108.425 200.676 109.425 203.176 110.475C205.726 111.575 208.226 112.575 210.676 113.475C213.176 114.375 215.676 115.125 218.176 115.725C220.676 116.325 223.326 116.625 226.126 116.625C228.376 116.625 230.351 116.475 232.051 116.175C233.751 115.875 235.276 115.425 236.626 114.825C237.976 114.225 239.176 113.45 240.226 112.5C241.326 111.6 242.351 110.55 243.301 109.35ZM170.176 125.1C173.176 125.1 175.926 124.65 178.426 123.75C180.976 122.9 183.226 121.75 185.176 120.3C187.126 118.85 188.801 117.175 190.201 115.275C191.651 113.375 192.801 111.375 193.651 109.275C190.651 107.925 187.451 106.8 184.051 105.9C180.651 105.05 176.976 104.625 173.026 104.625C169.926 104.625 167.351 105.125 165.301 106.125C163.201 107.125 161.601 108.375 160.501 109.875C159.401 111.425 158.801 113.075 158.701 114.825C158.601 116.625 158.951 118.275 159.751 119.775C160.551 121.325 161.826 122.6 163.576 123.6C165.326 124.6 167.526 125.1 170.176 125.1Z" fill="#000D1A"/>
<path d="M137.101 20.4229C137.285 22.2198 138.651 23.671 140.434 23.9629L140.72 24.0088C162.699 26.0103 181.436 39.4347 191.145 58.3906C190.962 58.3973 190.78 58.4066 190.597 58.418C181.205 40.2384 163.431 27.2328 142.493 24.7012L140.405 24.916C138.608 25.1004 137.158 26.4663 136.866 28.249L136.282 31.8184L135.913 28.2207C135.729 26.4237 134.363 24.9726 132.58 24.6807L130.809 24.3906C116.27 25.3649 103.084 31.3691 92.9209 40.708C92.6846 40.6975 92.4479 40.6891 92.2109 40.6836C102.64 30.9466 116.299 24.7212 131.368 23.8545L132.608 23.7275C134.405 23.5432 135.856 22.1773 136.147 20.3945L136.732 16.8252L137.101 20.4229Z" fill="#000D1A"/>
<path d="M41.9722 62.0991H42.7671V69.2373H45.8018V70H41.9722V62.0991ZM47.0586 62.0991H51.5864V62.8779H47.8481V65.3486H51.5542V66.1221H47.8481V69.2212H51.5542V70H47.0586V62.0991Z" fill="#000D1A"/>
</svg>
