<svg width="382" height="368" viewBox="0 0 382 368" fill="none" xmlns="http://www.w3.org/2000/svg">
<mask id="mask0_1_3" style="mask-type:alpha" maskUnits="userSpaceOnUse" x="57" y="23" width="263" height="263">
<path d="M188.5 23C227.588 23 262.048 37.9431 286.136 64.9958C287.527 66.5588 285.751 68.9469 283.767 68.2814C278.057 66.3663 272.322 65.1382 266.947 64.4335C266.598 64.3877 266.266 64.2525 265.985 64.0407C247.231 49.9368 223.912 42.415 198.155 42.415C136.236 42.415 86.0703 92.5806 86.0703 154.5C86.0703 216.419 136.236 266.585 198.155 266.585C255.89 266.585 303.402 222.971 309.562 166.882C309.671 165.888 310.491 165.131 311.468 164.916C314.736 164.196 317.502 161.861 318.7 158.602C318.948 157.926 319.951 158.113 319.928 158.832C317.642 229.451 259.675 286 188.5 286C115.876 286 57 227.124 57 154.5C57 81.8759 115.876 23 188.5 23Z" fill="#D9D9D9"/>
<path d="M285.977 83.8243C284.717 82.1941 286.314 79.9344 288.174 80.8218C294.689 83.9316 300.741 88.2051 305.495 93.9244C305.593 94.0424 305.677 94.1719 305.744 94.3095C308.808 100.543 311.473 107.144 313.703 114.095C314.358 116.135 314.932 118.068 315.442 119.924C315.477 120.054 315.5 120.186 315.508 120.32C315.896 126.639 315.274 133.745 313.395 141.724C312.882 143.901 309.719 143.52 309.463 141.297C309.348 140.304 309.222 139.317 309.085 138.338C308.35 133.09 306.694 125.112 303.838 117.033C299.406 104.495 293.364 93.387 285.977 83.8243Z" fill="#D9D9D9"/>
<path d="M230.418 186.809C231.602 187.584 233.187 186.92 233.462 185.532L255.311 75.2779C255.497 74.3393 256.308 73.6609 257.264 73.685C284.385 74.369 329.452 90.2369 311.518 148.629C310.931 150.542 308.027 150.458 307.31 148.59C302.407 135.819 290.01 117.792 266.385 113.926C265.347 113.756 264.368 114.456 264.164 115.488L243.484 219.843C243.452 220.003 243.402 220.156 243.331 220.304C236.184 235.166 214.057 251.755 182.871 240.195C156.28 230.338 157.422 210.175 160.937 201.697C162.889 196.986 173.149 176.082 205.709 178.966C219.723 180.208 224.829 183.148 230.418 186.809Z" fill="#D9D9D9"/>
</mask>
<g mask="url(#mask0_1_3)">
<path d="M356.839 15.9339H42.8387V292.934H356.839V15.9339Z" fill="url(#paint0_linear_1_3)"/>
</g>
<path d="M70.0479 315.458C70.0479 316.279 69.7549 316.967 69.1689 317.524C68.6123 318.11 67.9238 318.403 67.1035 318.403H49.5254C48.9688 318.432 48.5 318.564 48.1191 318.798C47.7676 319.003 47.5039 319.252 47.3281 319.545C47.1523 319.809 47.0645 320.087 47.0645 320.38C47.0645 320.673 47.1523 320.966 47.3281 321.259C47.5039 321.523 47.7676 321.772 48.1191 322.006C48.5 322.211 48.9688 322.328 49.5254 322.358H62.0059C64.0566 322.416 65.7412 322.9 67.0596 323.808C68.4072 324.687 69.3594 325.712 69.916 326.884C70.502 328.027 70.7949 329.199 70.7949 330.4C70.7949 331.572 70.502 332.744 69.916 333.915C69.3301 335.058 68.3779 336.083 67.0596 336.992C65.7412 337.87 64.0566 338.31 62.0059 338.31H61.7422C61.5664 338.339 61.3906 338.354 61.2148 338.354H44.6035C43.7832 338.354 43.0801 338.076 42.4941 337.519C41.9375 336.933 41.6592 336.23 41.6592 335.41C41.6592 334.589 41.9521 333.901 42.5381 333.344C43.0947 332.758 43.7832 332.465 44.6035 332.465H62.2695C62.8262 332.495 63.2803 332.392 63.6318 332.158C64.0127 331.923 64.291 331.66 64.4668 331.367C64.6426 331.044 64.7305 330.722 64.7305 330.4C64.7305 330.195 64.6426 329.916 64.4668 329.565C64.291 329.184 64.0127 328.876 63.6318 328.642C63.2803 328.408 62.8262 328.276 62.2695 328.246H49.7891C47.7383 328.188 46.0391 327.719 44.6914 326.84C43.373 325.961 42.4209 324.965 41.835 323.852C41.2783 322.709 41 321.552 41 320.38C41 319.238 41.293 318.11 41.8789 316.996C42.4648 315.854 43.417 314.843 44.7354 313.964C46.0537 313.085 47.7383 312.617 49.7891 312.558H50.0527C50.2285 312.529 50.4043 312.514 50.5801 312.514H67.1035C67.9238 312.514 68.6123 312.807 69.1689 313.393C69.7549 313.95 70.0479 314.638 70.0479 315.458Z" fill="black"/>
<path d="M81.6494 342.265C81.4736 344.023 80.5068 344.975 78.749 345.121C77.9287 345.121 77.2109 344.843 76.5957 344.286C76.0098 343.759 75.7168 343.085 75.7168 342.265V321.347C75.7461 320.527 76.0537 319.853 76.6396 319.326C77.2256 318.769 77.9287 318.491 78.749 318.491H97.2061C99.7842 318.578 101.732 319.194 103.051 320.336C104.369 321.45 105.321 322.724 105.907 324.16C106.493 325.566 106.786 327.001 106.786 328.466C106.786 329.99 106.493 331.469 105.907 332.905C105.351 334.311 104.398 335.585 103.051 336.728C101.732 337.841 100.048 338.412 97.9971 338.442H86.9229C86.1025 338.442 85.4141 338.149 84.8574 337.563C84.2715 337.006 83.9785 336.318 83.9785 335.497C83.9785 334.677 84.2568 333.989 84.8135 333.432C85.3994 332.846 86.1025 332.553 86.9229 332.553H98.1729C98.7295 332.553 99.2129 332.333 99.623 331.894C100.033 331.425 100.326 330.898 100.502 330.312C100.707 329.697 100.81 329.096 100.81 328.51C100.81 327.895 100.707 327.294 100.502 326.708C100.326 326.093 100.033 325.566 99.623 325.126C99.2129 324.658 98.7295 324.409 98.1729 324.379H82.792C82.0303 324.409 81.6494 324.789 81.6494 325.522V342.265Z" fill="black"/>
<path d="M121.244 338.442C118.666 338.354 116.718 337.753 115.399 336.64C114.081 335.497 113.129 334.223 112.543 332.817C111.957 331.381 111.664 329.931 111.664 328.466C111.664 326.943 111.942 325.478 112.499 324.072C113.085 322.636 114.037 321.362 115.355 320.248C116.703 319.106 118.402 318.52 120.453 318.491H134.691C136.742 318.52 138.427 319.106 139.745 320.248C141.093 321.362 142.045 322.636 142.602 324.072C143.188 325.478 143.48 326.943 143.48 328.466C143.48 329.931 143.188 331.381 142.602 332.817C142.016 334.223 141.063 335.497 139.745 336.64C138.427 337.753 136.479 338.354 133.9 338.442H121.244ZM120.277 324.379C119.721 324.379 119.237 324.614 118.827 325.082C118.417 325.522 118.109 326.049 117.904 326.664C117.729 327.25 117.641 327.836 117.641 328.422C117.641 329.037 117.729 329.653 117.904 330.268C118.109 330.854 118.417 331.381 118.827 331.85C119.237 332.289 119.721 332.524 120.277 332.553H134.867C135.424 332.524 135.907 332.289 136.317 331.85C136.728 331.381 137.021 330.854 137.196 330.268C137.401 329.653 137.504 329.037 137.504 328.422C137.504 327.836 137.401 327.25 137.196 326.664C137.021 326.049 136.728 325.522 136.317 325.082C135.907 324.614 135.424 324.379 134.867 324.379H120.277Z" fill="black"/>
<path d="M158.07 311.811C158.891 311.811 159.594 312.089 160.18 312.646C160.766 313.173 161.073 313.847 161.103 314.667V318.491H176.044C176.864 318.491 177.567 318.769 178.153 319.326C178.71 319.911 178.988 320.615 178.988 321.435C178.988 322.255 178.695 322.958 178.109 323.544C177.553 324.101 176.864 324.379 176.044 324.379H161.103V325.258C161.073 326.459 161.146 327.573 161.322 328.598C161.527 329.594 161.996 330.488 162.729 331.279C163.461 332.07 164.384 332.495 165.497 332.553H176.22C177.04 332.582 177.714 332.89 178.241 333.476C178.798 334.062 179.076 334.765 179.076 335.585C179.047 336.376 178.754 337.05 178.197 337.607C177.67 338.134 177.011 338.412 176.22 338.442H164.003C161.952 338.325 160.253 337.636 158.905 336.376C157.587 335.087 156.635 333.52 156.049 331.674C155.492 329.828 155.199 327.866 155.17 325.786V324.379H150.116C149.296 324.379 148.607 324.086 148.051 323.5C147.465 322.944 147.172 322.255 147.172 321.435C147.172 320.615 147.45 319.926 148.007 319.37C148.593 318.784 149.296 318.491 150.116 318.491H155.17V314.667C155.199 313.876 155.492 313.217 156.049 312.69C156.605 312.133 157.279 311.84 158.07 311.811Z" fill="black"/>
<path d="M186.327 318.051C187.118 318.08 187.792 318.373 188.349 318.93C188.905 319.457 189.198 320.117 189.228 320.908V336.113C189.052 337.87 188.085 338.823 186.327 338.969C185.507 338.969 184.789 338.705 184.174 338.178C183.588 337.621 183.295 336.933 183.295 336.113V320.908C183.324 320.087 183.632 319.413 184.218 318.886C184.804 318.329 185.507 318.051 186.327 318.051ZM182.636 312.338C182.636 311.518 182.987 310.815 183.69 310.229C184.394 309.643 185.243 309.35 186.239 309.35C187.235 309.35 188.085 309.643 188.788 310.229C189.491 310.815 189.843 311.518 189.843 312.338C189.843 313.188 189.491 313.906 188.788 314.492C188.085 315.078 187.235 315.37 186.239 315.37C185.243 315.37 184.394 315.078 183.69 314.492C182.987 313.906 182.636 313.188 182.636 312.338Z" fill="black"/>
<path d="M204.652 338.969C203.861 338.94 203.188 338.661 202.631 338.134C202.074 337.578 201.781 336.904 201.752 336.113V330.18H196.698C195.878 330.18 195.175 329.902 194.589 329.345C194.032 328.759 193.754 328.056 193.754 327.236C193.754 326.415 194.047 325.727 194.633 325.17C195.189 324.584 195.878 324.291 196.698 324.291H201.752C201.84 322.563 202.133 320.893 202.631 319.282C203.217 317.436 204.169 315.883 205.487 314.623C206.835 313.334 208.534 312.631 210.585 312.514H222.802C223.593 312.543 224.252 312.836 224.779 313.393C225.336 313.92 225.629 314.579 225.658 315.37C225.658 316.191 225.38 316.894 224.823 317.48C224.296 318.066 223.622 318.373 222.802 318.403H212.079C210.966 318.461 210.043 318.886 209.311 319.677C208.578 320.468 208.124 321.362 207.948 322.358C207.802 323.002 207.714 323.647 207.685 324.291H222.626C223.446 324.291 224.135 324.584 224.691 325.17C225.277 325.727 225.57 326.415 225.57 327.236C225.57 328.056 225.292 328.759 224.735 329.345C224.149 329.902 223.446 330.18 222.626 330.18H207.685V336.113C207.655 336.933 207.348 337.621 206.762 338.178C206.176 338.705 205.473 338.969 204.652 338.969Z" fill="black"/>
<path d="M233.876 318.666C233.612 318.813 233.349 318.886 233.085 318.886C232.938 318.886 232.792 318.857 232.646 318.798C232.235 318.681 231.928 318.417 231.723 318.007C231.518 317.597 231.474 317.187 231.591 316.777C231.708 316.337 231.957 315.986 232.338 315.722C234.184 314.374 235.18 312.661 235.326 310.58C235.326 310.463 235.282 310.375 235.194 310.317C235.106 310.229 235.004 310.185 234.887 310.185C233.891 310.185 233.041 309.877 232.338 309.262C231.635 308.618 231.283 307.768 231.283 306.713C231.283 305.571 231.62 304.662 232.294 303.989C232.968 303.286 233.832 302.934 234.887 302.934C236.293 302.934 237.362 303.476 238.095 304.56C238.856 305.615 239.237 307.109 239.237 309.042C239.237 313.173 237.45 316.381 233.876 318.666Z" fill="black"/>
<path d="M243.896 335.497C243.896 334.677 244.174 333.989 244.73 333.432C245.316 332.846 246.02 332.553 246.84 332.553H255.277V318.403H246.84C246.02 318.403 245.331 318.11 244.774 317.524C244.188 316.967 243.896 316.279 243.896 315.458C243.896 314.638 244.174 313.95 244.73 313.393C245.316 312.807 246.02 312.514 246.84 312.514H269.604C270.424 312.514 271.127 312.792 271.713 313.349C272.27 313.935 272.548 314.638 272.548 315.458C272.548 316.279 272.255 316.982 271.669 317.568C271.112 318.124 270.424 318.403 269.604 318.403H261.21V332.553H269.604C270.424 332.553 271.127 332.831 271.713 333.388C272.27 333.974 272.548 334.677 272.548 335.497C272.548 336.318 272.255 337.021 271.669 337.607C271.112 338.163 270.424 338.442 269.604 338.442H246.84C246.02 338.442 245.331 338.149 244.774 337.563C244.188 337.006 243.896 336.318 243.896 335.497Z" fill="#238EE7"/>
<path d="M291.093 311.328C292.616 311.328 294.11 311.503 295.575 311.855C297.069 312.206 298.49 312.734 299.838 313.437C301.186 314.111 302.372 315.019 303.397 316.161C304.452 317.304 305.023 318.666 305.111 320.248V336.113C304.936 337.87 303.969 338.823 302.211 338.969C301.391 338.969 300.673 338.705 300.058 338.178C299.472 337.621 299.179 336.933 299.179 336.113V321.611C299.12 320.703 298.769 319.955 298.124 319.37C297.509 318.754 296.806 318.271 296.015 317.919C295.253 317.568 294.447 317.304 293.598 317.128C292.777 316.953 291.942 316.865 291.093 316.865C290.243 316.865 289.394 316.953 288.544 317.128C287.724 317.304 286.918 317.568 286.127 317.919C285.365 318.271 284.662 318.754 284.018 319.37C283.402 319.955 283.065 320.703 283.007 321.611V336.113C282.86 337.87 281.908 338.823 280.15 338.969C279.33 338.969 278.612 338.705 277.997 338.178C277.411 337.621 277.118 336.933 277.118 336.113V320.248C277.206 318.666 277.763 317.304 278.788 316.161C279.813 315.019 281 314.111 282.348 313.437C283.695 312.734 285.102 312.206 286.566 311.855C288.061 311.503 289.569 311.328 291.093 311.328Z" fill="#238EE7"/>
<path d="M309.813 315.458C309.813 314.638 310.092 313.95 310.648 313.393C311.234 312.807 311.938 312.514 312.758 312.514H338.334C339.154 312.514 339.857 312.792 340.443 313.349C341 313.935 341.278 314.638 341.278 315.458C341.278 316.279 340.985 316.982 340.399 317.568C339.843 318.124 339.154 318.403 338.334 318.403H328.534V336.201C328.358 337.958 327.392 338.911 325.634 339.057C324.813 339.057 324.096 338.793 323.48 338.266C322.895 337.709 322.602 337.021 322.602 336.201V318.403H312.758C311.938 318.403 311.249 318.11 310.692 317.524C310.106 316.967 309.813 316.279 309.813 315.458Z" fill="#238EE7"/>
<defs>
<linearGradient id="paint0_linear_1_3" x1="42.8387" y1="154.434" x2="356.839" y2="154.434" gradientUnits="userSpaceOnUse">
<stop stop-color="#2566EB"/>
<stop offset="1" stop-color="#22CBEE"/>
</linearGradient>
</defs>
</svg>
