<svg width="179" height="177" viewBox="0 0 179 177" fill="none" xmlns="http://www.w3.org/2000/svg">
<path fill-rule="evenodd" clip-rule="evenodd" d="M90.4268 71.0881C90.0894 71.9208 88.9106 71.9208 88.5732 71.0881L74.6867 36.8162C74.5338 36.4387 74.1658 36.1917 73.7585 36.1917C46.2871 36.1881 21.2368 36.0795 6.29277 64.4239C-8.75301 92.9612 4.49808 107.371 32.0592 176.022C32.2114 176.402 32.5843 176.664 32.993 176.664H89.5H146.007C146.416 176.664 146.789 176.402 146.941 176.022C174.502 107.371 187.753 92.9612 172.707 64.4239C157.763 36.0795 132.713 36.1881 105.242 36.1917C104.834 36.1917 104.466 36.4387 104.313 36.8162L90.4268 71.0881ZM42.3308 159.871C42.4873 160.241 42.8501 160.482 43.2519 160.482H89.5H135.748C136.15 160.482 136.513 160.241 136.669 159.871L141.645 148.099C141.924 147.44 141.44 146.71 140.724 146.71H89.5H38.2762C37.5604 146.71 37.0764 147.44 37.3551 148.099L42.3308 159.871ZM81.2147 95.2362C81.2592 95.3513 81.282 95.4736 81.282 95.597V130.561C81.282 131.113 80.8343 131.561 80.282 131.561H46.3283C45.776 131.561 45.3327 131.112 45.263 130.564C44.7427 126.48 41.322 122.196 42.5889 104.362C43.8985 85.9283 60.2982 70.3721 68.2965 65.0622C68.8157 64.7175 69.5041 64.9583 69.7289 65.5396L81.2147 95.2362ZM32.3165 82.3271C24.9351 97.4676 26.2097 108.512 26.7009 117.669C26.7574 118.724 25.4229 119.048 24.9654 118.096C16.4036 100.275 13.163 88.1298 20.3319 71.654C27.3643 55.4917 45.2967 52.1799 55.4435 52.5371C56.3545 52.5691 56.6634 53.6918 55.9342 54.2387C50.471 58.3362 39.6777 67.2278 32.3165 82.3271ZM97.7853 95.2362C97.7408 95.3513 97.718 95.4736 97.718 95.597V130.561C97.718 131.113 98.1657 131.561 98.718 131.561H132.672C133.224 131.561 133.667 131.112 133.737 130.564C134.257 126.48 137.678 122.196 136.411 104.362C135.102 85.9283 118.702 70.3721 110.704 65.0622C110.184 64.7175 109.496 64.9583 109.271 65.5396L97.7853 95.2362ZM146.684 82.3271C154.065 97.4676 152.79 108.512 152.299 117.669C152.243 118.724 153.577 119.048 154.035 118.096C162.596 100.275 165.837 88.1298 158.668 71.654C151.636 55.4917 133.703 52.1799 123.557 52.5371C122.646 52.5691 122.337 53.6918 123.066 54.2387C128.529 58.3362 139.322 67.2278 146.684 82.3271Z" fill="#22CBEE"/>
<path d="M90.4038 0.57202C90.0426 -0.190621 88.9574 -0.190621 88.5962 0.57202L79.4318 19.9228C79.3026 20.1956 79.3036 20.5123 79.4345 20.7844L88.5989 39.828C88.9623 40.5831 90.0377 40.5831 90.4011 39.828L99.5655 20.7844C99.6964 20.5123 99.6974 20.1956 99.5682 19.9228L90.4038 0.57202Z" fill="#22CBEE"/>
</svg>
