<svg width="2919" height="2919" viewBox="0 0 2919 2919" fill="none" xmlns="http://www.w3.org/2000/svg">
<path fill-rule="evenodd" clip-rule="evenodd" d="M901.856 2247.49C947.496 2301.58 977.359 2425.54 824.101 2437.37C779.588 2385.53 788.039 2247.49 901.856 2247.49ZM893.607 2283.09C931.358 2326.48 904.876 2393.53 832.152 2404.11C812.469 2381.7 811.342 2303.94 893.607 2283.09Z" fill="#0C090A"/>
<path fill-rule="evenodd" clip-rule="evenodd" d="M2561.79 909.848C2565.74 841.106 2722.94 739.684 2759 851.248C2757.53 880.586 2715.11 927.04 2666.59 942.528C2621.93 956.786 2570.81 942.528 2561.79 909.848ZM2724.63 855.756C2655.89 816.314 2583.77 846.177 2596.16 905.34C2690.26 933.512 2721.25 881.675 2724.63 855.756Z" fill="#0C090A"/>
<path fill-rule="evenodd" clip-rule="evenodd" d="M1305.23 1132.74L1305.22 1132.71C1303.55 1127.12 1301.85 1121.45 1300.12 1115.7C1301.85 1121.46 1303.55 1127.13 1305.23 1132.74Z" fill="#0C090A"/>
<path fill-rule="evenodd" clip-rule="evenodd" d="M1409.53 481.623C1337.97 477.115 1229.79 497.963 1183.02 515.993C1145.61 530.417 1094.18 530.635 1073.15 528.94C1066.72 527.492 1060.36 526.032 1054.07 524.589L1053.98 524.57C1011.22 514.765 971.897 505.748 941.862 506.415C891.152 507.542 809.45 557.689 809.45 638.826C810.043 644.329 810.557 651.169 810.956 658.847C812.833 694.925 812.196 749.489 805.506 770.675C800.074 787.875 784.209 809.923 770.147 829.463L770.137 829.477C757.947 846.417 747.115 861.47 745.619 869.842C739.745 856.691 734.145 842.184 728.61 826.9C721.781 807.347 715.452 788.434 715.355 788.145L715.354 788.141L715.057 788.188C709.333 771.57 703.496 754.623 697.323 737.994C673.061 672.634 652.314 621.31 615.059 575.72C599.426 556.59 574.929 543.808 566.602 542.475C538.429 537.968 510.82 549.801 482.647 595.44C454.475 641.08 490.051 736.235 532.795 818.005C538.614 829.136 544.916 840.07 551.088 850.778L551.089 850.779C572.409 887.769 592.187 922.083 585.196 952.67C575.216 996.334 526.855 1020.27 481.566 1042.68L481.565 1042.68L481.564 1042.68C456.759 1054.96 432.875 1066.78 416.724 1081.14C384.264 1109.99 411.088 1143.12 446.022 1170.73C475.367 1193.92 506.242 1228.62 523.779 1274.96C531.668 1295.81 537.415 1337.85 497.297 1359.48C457.179 1381.12 437.947 1362.86 433.627 1350.47C433.815 1326.43 433.514 1274.63 433.063 1259.75C432.5 1241.16 426.302 1193.26 403.764 1179.18C381.226 1165.09 354.743 1169.16 338.967 1176.92C337.298 1177.75 335.711 1178.39 334.208 1179.01L334.205 1179.01L334.2 1179.01L334.197 1179.01C321.493 1184.19 314.738 1186.94 314.738 1271.58C314.738 1343.3 313.049 1352.92 310.767 1365.92L310.76 1365.95L310.76 1365.95L310.759 1365.96C310.408 1367.96 310.042 1370.04 309.667 1372.44C298.398 1382.58 258.956 1390.47 213.316 1393.85C164.915 1397.44 157.91 1425.03 159.788 1437.24C165.423 1453.02 274.169 1513.42 306.286 1530.32C331.98 1543.84 387.987 1577.54 408.835 1597.26C466.082 1514.32 514.765 1509.36 538.43 1520.07C531.655 1529.82 522.006 1543.24 511.301 1558.11L510.542 1559.16L509.338 1560.83L509.316 1560.86C485.987 1593.26 458.269 1631.75 444.332 1654.17C418.413 1695.87 411.089 1721.57 411.089 1739.81C411.089 1757.28 418.978 1784.26 465.744 1809.12C521.539 1838.78 576.14 1860.96 637.944 1886.07L638.54 1886.31C645.821 1889.27 653.203 1892.27 660.698 1895.33L660.5 1895.77L660.41 1895.96L660.246 1896.32C657.784 1901.69 649.3 1920.21 632.526 1968.01C614.496 2019.4 617.876 2034.5 624.638 2039.57C631.399 2044.64 647.039 2039.29 686.617 2020.98C724.369 2003.51 770.76 1983.79 789.166 1978.72C824.1 1973.08 870.303 1973.08 925.521 1988.3C956.672 1996.88 981.439 2012.04 985.248 2033.37C987.544 2046.23 980.541 2061.05 970.573 2082.14L970.567 2082.15C967.76 2088.08 964.719 2094.52 961.583 2101.55C926.649 2179.87 927.776 2202.97 939.045 2217.62C961.583 2230.58 1027.51 2203.54 1084.42 2157.33C1109.21 2137.21 1152.85 2097.04 1164.43 2067.74C1172.09 2048.34 1177.89 2031.93 1181.22 2016.47C1182.76 2012.34 1189.44 2004.3 1203.87 2005.2C1221.9 2006.33 1262.33 2012.53 1300.43 2036.19C1338.53 2059.86 1344.17 2062.45 1360.51 2068.27C1375 2075.15 1388.65 2076.63 1400.51 2077.32C1407.26 2077.72 1415.75 2076.46 1425.24 2075.06L1425.25 2075.06L1425.29 2075.05C1428.56 2074.57 1431.96 2074.06 1435.45 2073.61C1518.72 2062.66 1584.5 2033.75 1645.79 2006.81L1645.8 2006.81L1645.8 2006.81C1664.05 1998.78 1681.91 1990.94 1699.71 1983.79C1675.85 1989.05 1619.13 2000.69 1583.07 2005.2C1547.01 2009.71 1521.84 2008.96 1513.77 2008.02C1522.22 1999 1530.67 1992.24 1558.71 1978.72C1581.01 1967.96 1613.91 1961.84 1646.29 1955.82L1646.29 1955.81L1646.31 1955.81L1646.33 1955.81L1646.34 1955.81C1654.65 1954.26 1662.92 1952.72 1670.97 1951.11C1702.52 1944.8 1712.54 1940.22 1713.61 1938.71C1712.83 1941.72 1712.14 1944.73 1711.54 1947.73C1700.27 2004.07 1682.33 2052.45 1649.56 2133.67L1648.21 2137.02L1648.21 2137.03L1648.2 2137.03C1621.95 2202.07 1582.99 2298.61 1578 2355.11C1595.02 2358.01 1609.65 2363.1 1623.43 2367.89L1623.44 2367.9L1623.44 2367.9C1649.82 2377.08 1673.13 2385.19 1704.21 2374.83C1751.54 2359.05 1770.14 2294.25 1795.49 2204.66C1810.73 2150.83 1848.03 2063.67 1886.21 2050.28C1923.87 2037.07 1952.04 2051.76 1982.13 2067.45C2012.35 2083.22 2044.51 2099.99 2090.18 2090.5C2120.91 2084.12 2133 2059.86 2133 2028.3C2095.25 1993.37 2126.77 1908.94 2143.71 1871.66C2152.93 1851.37 2180.75 1820.52 2224.38 1833.71C2268 1846.9 2259.78 1882.91 2259.78 1882.93C2259.68 1883.03 2211.87 1929.15 2198.96 1945.08C2198.07 1946.17 2197.06 1947.39 2195.96 1948.73C2182.53 1964.94 2155.22 1997.92 2161.18 2031.68C2165.95 2058.74 2178.64 2085.55 2201.74 2090.85C2221.14 2095.29 2229.94 2085.23 2252.49 2059.46L2252.5 2059.45L2252.53 2059.42L2252.55 2059.4C2256.85 2054.49 2261.64 2049.01 2267.1 2042.95L2270.07 2039.66L2270.08 2039.66C2296.54 2010.28 2341.82 1960.02 2365.15 1957.31C2384.63 1955.04 2399.75 1971.34 2420.45 1993.65L2420.46 1993.66L2420.47 1993.68L2420.5 1993.7L2420.52 1993.73L2420.53 1993.74L2420.55 1993.76C2425.56 1999.16 2430.9 2004.91 2436.7 2010.84C2464.31 2039.01 2491.36 2041.26 2503.75 2026.61C2528.55 1997.31 2513.79 1916.23 2497.56 1848.56C2495.98 1842 2494.42 1835.08 2492.82 1828C2482.07 1780.36 2469.66 1725.44 2441.21 1723.47C2425.41 1722.38 2412.78 1727.62 2400.57 1732.68C2387.52 1738.08 2374.95 1743.29 2359.51 1740.38C2335.6 1735.86 2317.82 1709.39 2310.36 1690.18C2360.64 1700.37 2415.86 1694.74 2459.24 1672.2C2558.97 1618.67 2537.56 1467.67 2482.91 1340.33C2483.84 1339.97 2484.81 1339.61 2485.82 1339.24C2486.78 1338.88 2487.78 1338.51 2488.81 1338.12C2521.94 1325.8 2585.39 1302.19 2593.34 1269.33C2600.75 1238.73 2564.48 1222.39 2529.61 1206.69L2529.54 1206.66L2529.52 1206.65L2529.5 1206.64C2524.6 1204.44 2519.74 1202.24 2515.02 1200.03C2480.5 1183.78 2448.52 1168.2 2422.05 1140.86C2417.37 1136.03 2412.16 1130.96 2406.73 1125.68L2406.68 1125.63L2406.64 1125.59C2372.21 1092.12 2329.21 1050.31 2358.95 1007.89C2367.89 995.135 2386.47 988.109 2415.38 977.172L2415.44 977.15C2417.59 976.338 2419.79 975.504 2422.05 974.644C2502.22 944.186 2505.45 940.273 2505.45 918.299C2505.44 896.324 2455.8 863.008 2383.74 849.557C2341.48 841.669 2289.28 844.994 2260.34 857.446C2215.27 876.845 2183.7 900.732 2163.43 935.766C2147.43 963.419 2140.32 994.381 2141.54 1026.2C2142.69 1056.09 2149.59 1074.62 2159.64 1093.61C2162.69 1099.38 2166.03 1105.19 2169.59 1111.38L2169.59 1111.38L2169.6 1111.38L2169.64 1111.45C2170.19 1112.42 2170.75 1113.4 2171.32 1114.38C2184.9 1138.05 2228.23 1170.16 2241.75 1178.05C2219.21 1184.81 2194.42 1206.22 2194.42 1246.23C2194.42 1286.23 2223.5 1337.16 2251.33 1385.4C2252.97 1388.25 2256.33 1393.57 2260.76 1400.59L2260.76 1400.6L2260.76 1400.6C2279.17 1429.79 2316.06 1488.28 2325.14 1520.07C2309.36 1529.65 2276.63 1528.34 2267.67 1527.39C2263.36 1526.94 2257.73 1525.89 2251.18 1524.68C2225.17 1519.84 2184.68 1512.32 2154.98 1528.52C2134.27 1539.82 2124.56 1561.68 2115.85 1581.32C2108.92 1596.94 2102.61 1611.16 2091.87 1617.54C2086.11 1620.97 2079.86 1623.02 2073.45 1624.5L2068.71 1625.49C2067.63 1625.7 2066.54 1625.9 2065.46 1626.09L2065.39 1626.1L2065.41 1626.07C2113.62 1542.77 2124.55 1453.08 2123.99 1418.65C2119.04 1462.28 2067.29 1577.85 2041.88 1630.51L2041.72 1630.83C2021.97 1663.12 1984.31 1724.28 1968.57 1748.52C1965.61 1753.08 1963.42 1756.34 1962.28 1757.84C1961.11 1759.48 1959.92 1761.1 1958.73 1762.7C1926.24 1806.2 1885.49 1834.54 1855.24 1846.65C1841.66 1852.09 1830.2 1854.26 1822.54 1853.07C1852.61 1821.19 1921.17 1746.65 1980.42 1676.88L1981.05 1676.14C1989.29 1666.42 1997.35 1656.8 2005.1 1647.41C2013.27 1637.49 2020.97 1626.91 2028.19 1615.88C2077.1 1541.17 2104.29 1446.24 2112.37 1403.33C2056.11 1569.01 1995.3 1648.64 1971.29 1668.36L1970.73 1668.82C2112.15 1484.01 2118.17 1276.84 2112.16 1246.23C2088.18 1397.46 2020.92 1544.33 1932.57 1659.8C1868.42 1743.65 1793.15 1810.94 1715.25 1851.33C1708.1 1855.04 1700.93 1858.52 1693.74 1861.77C1648.81 1882.06 1603.26 1893.19 1558.71 1893.19C1584.17 1828.49 1607.83 1768.88 1630.68 1711.33L1630.7 1711.28L1630.73 1711.19L1630.86 1710.86L1630.88 1710.82L1630.98 1710.56L1630.98 1710.55L1631.01 1710.5L1631.01 1710.47L1631.03 1710.43L1631.04 1710.42L1631.13 1710.18L1631.14 1710.17C1655.45 1648.92 1678.85 1589.97 1702.52 1529.65C1702.52 1529.65 1888.46 1057.47 1916.07 972.391C1921.3 956.292 1928.13 937.531 1935.59 917.077L1935.6 917.055L1935.6 917.04C1937.66 911.384 1939.77 905.599 1941.91 899.705C1960.91 916.045 2001.49 959.206 2011.86 1001.13C2016.29 1019.05 2021.32 1050.62 2026.85 1085.35C2037.48 1152.16 2049.98 1230.66 2063.7 1246.23C2068.39 1228.39 2076.88 1180.87 2073.28 1133.54C2068.77 1074.38 2049.05 997.315 2028.76 957.178C2012.54 925.068 1978.43 864.164 1963.4 837.725C1983.87 858.949 2033.05 924.271 2065.95 1015.78L2073.28 1001.13C2078.35 1005.45 2089.39 1017.92 2093 1033.24C2090.93 1020.28 2082.63 985.575 2065.95 950.416C2049.27 915.256 2003.71 814.436 1983.02 768.421C1983.78 765.121 1984.51 761.83 1985.21 758.551C1994.8 713.509 1997.89 670.635 1987.07 637.136C1957.77 546.42 1898.04 512.613 1825.36 496.836C1776 486.122 1741.4 491.764 1714.36 513.739C1714.36 514.176 1712.63 514.803 1709.51 515.489C1692.47 519.227 1633.71 524.728 1584.2 510.923C1525.6 494.583 1481.09 486.131 1409.53 481.623ZM1768.45 1916.18C1830.43 1869.97 2006.79 1975.34 2097.5 2032.25C2089.56 2072.49 2041.31 2054.03 2007.22 2040.99C2002.65 2039.24 1998.33 2037.59 1994.39 2036.19L1993.67 2035.93C1971.57 2028.07 1941.75 2017.45 1923.4 2013.09C1895.9 2006.55 1875.3 2009.08 1855.78 2018.16C1820.04 2034.8 1798.16 2118.38 1788.47 2155.41C1788.06 2156.96 1787.68 2158.43 1787.32 2159.81C1787.13 2160.52 1786.95 2161.21 1786.77 2161.87C1786.67 2162.24 1786.57 2162.61 1786.48 2162.97C1778.03 2194.52 1758.87 2246.36 1749.85 2267.21C1740.84 2288.05 1723.37 2326.93 1688.44 2346.09C1660.49 2361.42 1623.64 2351.91 1612.94 2343.27C1629.38 2273.46 1655.64 2207.11 1681.9 2140.76C1703.32 2086.62 1724.75 2032.48 1740.84 1976.46C1740.84 1938.15 1756.19 1925.31 1768.45 1916.18ZM1019.87 1924.59C995.076 1908.72 963.231 1888.33 957.075 1874.48C970.786 1881.43 1000.91 1896.91 1011.73 1903.22C1015.87 1905.63 1019.63 1907.99 1023.29 1910.28L1023.3 1910.29L1023.31 1910.29L1023.33 1910.31C1031.62 1915.5 1039.33 1920.33 1049.48 1924.63C1064.13 1930.82 1084.41 1940.97 1091.18 1944.35C1097.94 1947.73 1125.62 1970.64 1134.5 1995.5C1137.97 2005.2 1139 2011 1139 2025C1139 2025.86 1138.9 2027.13 1138.74 2028.61C1138.3 2030.57 1137.84 2032.54 1137.38 2034.5C1110.33 2148.88 1017.93 2178.75 961.02 2182.13C964.573 2169.64 968.711 2156.57 972.908 2143.31C992.003 2083 1012.3 2018.89 984.121 1988.86C957.004 1959.97 899.373 1957.02 856.886 1954.86C845.522 1954.28 835.241 1953.75 826.918 1952.8C853.875 1915.13 898.068 1893.7 940.159 1881.79L940.172 1881.8C944.68 1887.44 990.319 1917.87 1011.73 1930.83C1028.86 1941.19 1059.44 1959.19 1072.58 1966.89C1065.82 1959.75 1047.23 1942.21 1026.94 1929.13C1025.74 1928.36 1024.5 1927.56 1023.24 1926.75L1021.81 1925.84L1019.96 1924.65L1019.9 1924.62L1019.87 1924.59ZM1762.81 544.729C1790.42 535.714 1855.04 544.864 1895.79 583.608C1931.28 617.358 1941.57 668.127 1940.43 714.039C1939.62 746.601 1933.06 776.721 1925.65 796.594C1898.2 872.772 1870.87 952.259 1842.62 1034.42C1781.55 1212.04 1716.17 1402.16 1636.04 1598.39C1621.04 1635.1 1608.39 1666.94 1596.96 1695.71L1596.95 1695.72C1557.72 1794.46 1532.86 1856.99 1477.14 1956.18C1448.97 2006.33 1427.56 2040.13 1401.64 2042.95C1378.96 2045.42 1347.64 2012.06 1323.93 1955.35C1320.55 1947.26 1317.33 1938.7 1314.3 1929.7C1258.15 1762.49 1241.62 1708.82 1208.94 1587.12C1204.96 1572.3 1199.39 1551.14 1192.59 1525.28C1168.88 1435.18 1130.14 1287.97 1091.18 1152.7C1058.9 1040.62 1005.59 900.27 992.573 870.406C977.339 835.457 956.498 792.207 931.81 753.093L930.631 751.233L929.504 749.47C923.857 740.669 918.015 732.1 911.999 723.908C907.366 717.599 902.144 711.08 896.812 704.423C871.667 673.033 844.018 638.517 863.542 607.837C887.207 570.649 940.735 552.618 1015.11 554.872C1065.45 556.397 1113.46 575.215 1140.81 597.525C1153.88 608.179 1162.22 619.631 1163.86 630.375C1167.4 653.553 1163.79 663.583 1158.05 679.563C1155.56 686.503 1152.67 694.565 1149.78 705.313C1143.56 728.432 1136.35 767.857 1164.43 856.883C1176.09 893.859 1188.39 936.742 1202.53 986.043C1205.02 994.717 1207.56 1003.59 1210.17 1012.66C1228.44 1076.19 1249.81 1149.59 1276.55 1233.83C1340.22 1434.42 1417.42 1503.91 1439.39 1513.31C1470.94 1493.02 1540.81 1437.8 1608.99 1250.74C1633.95 1182.25 1672.43 1047.68 1693.51 922.807C1710.87 819.942 1715.53 745.743 1710.41 669.816C1707.27 623.253 1712.39 594.906 1721.54 576.996C1732.1 556.33 1748.02 549.559 1762.81 544.729ZM2076.25 1651.98C2103.4 1638.53 2134.2 1635.16 2163.43 1642.34C2198.7 1651 2239.38 1681.21 2255.88 1693.46C2258.29 1695.25 2260.19 1696.66 2261.47 1697.56C2269.09 1702.89 2279.1 1711.64 2289.93 1721.11L2289.93 1721.11L2289.93 1721.11C2311.1 1739.63 2335.4 1760.88 2351.06 1764.61C2379.76 1771.44 2410.3 1759.46 2430.12 1751.69L2430.18 1751.66L2430.18 1751.66C2434.13 1750.11 2437.65 1748.73 2440.65 1747.7C2442.09 1762.09 2447.95 1791.16 2454.81 1825.22L2454.81 1825.23C2466.77 1884.56 2481.78 1959.01 2481.78 1997.31C2472.95 1995.81 2451.77 1982.32 2437.27 1969.14C2412.48 1946.6 2379.8 1923.5 2361.2 1922.94C2342.61 1922.37 2324.01 1924.06 2301.48 1957.87C2273.3 2000.13 2227.1 2033.37 2217.52 2024.92C2207.94 2016.47 2215.83 1997.31 2230.48 1974.77C2235.88 1966.47 2243.57 1956.57 2251.41 1946.46L2251.42 1946.45L2251.42 1946.45C2264.87 1929.12 2278.76 1911.22 2282.32 1899.84C2287.95 1881.81 2285.14 1860.39 2276.68 1837.86C2268.23 1815.32 2246.7 1798.02 2216.39 1794.47C2188.68 1791.22 2165.12 1796.16 2143.14 1816.44C2092.62 1863.08 2091.87 1953.93 2091.87 1984.92C2040.24 1979.37 2020.34 1928.96 2010.6 1904.3L2010.17 1903.22C2000.59 1878.99 1993.83 1832.22 1999.46 1782.07C2005.1 1731.93 2023.13 1689.67 2054.68 1665.44C2057.3 1663.43 2059.97 1661.53 2062.7 1659.75C2067.09 1656.87 2071.62 1654.28 2076.25 1651.98ZM1179.64 1953.93C1179.12 1952.01 1178.56 1950.13 1177.95 1948.29C1180.2 1950.17 1188.54 1954.49 1203.87 1956.74C1208.28 1957.39 1212.63 1957.92 1216.96 1958.45L1216.98 1958.45L1217 1958.45C1231.47 1960.21 1245.74 1961.95 1261.34 1968.01C1277.57 1974.32 1289.89 1984.04 1294.02 1988.11C1294.77 1989.67 1295.53 1991.24 1296.27 1992.81C1297.66 1995.72 1299.04 1998.54 1300.43 2001.26C1299.63 2001.26 1298.62 2001.54 1297.27 2001.91C1291.61 2003.49 1279.84 2006.77 1251.2 1998.44C1222.8 1990.18 1194.5 1980.72 1183.9 1977.03C1184.17 1974.03 1186.18 1968.47 1192.04 1970.27C1194.15 1970.91 1196.42 1972.04 1198.89 1973.27L1198.89 1973.27C1204.96 1976.28 1212.29 1979.92 1221.9 1978.72C1218.65 1975.9 1209.04 1969.14 1196.54 1964.63C1184.17 1960.17 1180.15 1955.71 1179.65 1953.98L1179.64 1953.93ZM569.419 1532.46C591.394 1509.93 621.82 1489.64 646.612 1490.77C652.08 1491.02 657.356 1492 662.331 1493.68C672.464 1497.22 680.208 1503.06 685.963 1509.43C691.943 1516.25 696.473 1524.77 699.014 1534.72C649.429 1563.45 602.1 1625.43 619.567 1668.26C628.875 1669.36 641.306 1673.04 655.808 1678.35C656.151 1678.48 656.495 1678.6 656.841 1678.73L657.229 1678.87C657.824 1679.09 658.423 1679.32 659.024 1679.54C706.324 1702.9 763.326 1739.04 796.491 1763.48L895.659 1844.62L896.87 1845.63L896.786 1845.74C833.82 1908.85 736.202 2001.26 656.191 1994.49C656.647 1990.85 657.057 1987.55 657.431 1984.53C660.762 1957.7 661.325 1953.16 666.896 1926.32C670.442 1909.24 674.725 1895.66 678.269 1884.42C680.92 1876.01 683.159 1868.92 684.364 1862.65C680.224 1861.18 675.387 1859.52 669.996 1857.67L669.983 1857.67L669.982 1857.67L669.971 1857.66C652.622 1851.71 629.543 1843.79 605.48 1833.91C553.569 1812.59 523.976 1795.91 483.211 1758.41C455.039 1732.49 462.403 1687.33 482.084 1647.97C506.876 1598.39 527.759 1575.19 569.419 1532.46ZM1542.86 1962.65C1551.97 1959.75 1567.92 1956.47 1593.26 1954.68C1593.99 1954.63 1594.72 1954.58 1595.46 1954.53L1596.03 1954.49C1585.7 1957.68 1558.73 1964.63 1533.49 1966.89C1534.71 1965.82 1537.68 1964.3 1542.86 1962.65ZM1010.04 1899.83C999.898 1893.07 979.613 1878.42 981.304 1862.65C987.69 1867.72 1005.53 1880.79 1025.82 1892.51C1030.64 1895.3 1037.81 1899.37 1046.27 1904.17L1046.65 1904.39L1046.74 1904.44C1082.81 1924.92 1141.76 1958.4 1143.58 1962.94C1129.68 1957.68 1099.74 1946.04 1091.18 1941.53C1087.28 1939.48 1082.93 1936.9 1078.3 1934.16L1078.27 1934.14L1078.19 1934.1C1077.21 1933.51 1076.21 1932.92 1075.2 1932.33C1067.96 1928.05 1060.13 1923.56 1052.3 1920.12C1049.93 1919.08 1047.45 1918 1044.91 1916.9L1044.86 1916.88C1032.33 1911.46 1018.47 1905.45 1010.04 1899.83ZM1646.18 1941.53C1652.04 1933.87 1697.45 1916.55 1719.43 1908.85C1713.61 1914.48 1698.69 1926.54 1685.62 1929.7C1672.55 1932.85 1653.88 1938.9 1646.18 1941.53ZM1851.55 1871.66C1910.38 1829.29 1949.26 1792.78 1961.35 1779.82L1961.35 1779.88L1961.36 1780.01V1780.04L1961.36 1780.17L1961.36 1780.41L1961.36 1780.75L1961.37 1780.83C1961.37 1780.95 1961.37 1781.06 1961.37 1781.18L1961.38 1781.39C1961.48 1787.24 1961.79 1793.06 1962.28 1798.88C1962.35 1799.78 1962.43 1800.67 1962.51 1801.57L1962.55 1801.95L1962.59 1802.43C1964.04 1817.81 1966.55 1833.12 1969.07 1848.5L1969.08 1848.6C1969.64 1851.96 1970.19 1855.33 1970.73 1858.7C1978.05 1904.34 1988.2 1929.13 2003.41 1933.64C1990.91 1952.39 1944.36 1923.92 1895.04 1893.76C1890.98 1891.28 1886.91 1888.79 1882.83 1886.31C1874.67 1881.35 1863.69 1876.2 1851.55 1871.66ZM1109.77 1916.74C1115.97 1922.37 1129.38 1933.08 1133.44 1930.83C1138.51 1928.01 1126.67 1922.94 1109.77 1916.74ZM1001.02 1862.65C1021.1 1855.44 1032.71 1866.1 1042.73 1875.3L1042.75 1875.32C1043.69 1876.18 1044.62 1877.04 1045.54 1877.86C1054.1 1885.52 1063.38 1891.57 1066.95 1893.64C1066.95 1894.2 1064.69 1894.76 1055.68 1892.51C1046.66 1890.26 1015.49 1871.66 1001.02 1862.65ZM872.05 995.157C887.855 951.672 907.124 909.989 929.471 871.21C960.034 908.354 971.031 937.41 985.628 975.978C989.131 985.234 992.842 995.039 997.08 1005.63C1014.98 1050.39 1045.16 1155.8 1075.87 1268.2C1091.81 1326.54 1107.23 1386.6 1121.2 1441.04L1121.21 1441.08L1121.21 1441.1L1121.23 1441.16C1132.86 1486.47 1143.49 1527.9 1152.59 1561.2C1159.48 1586.39 1166.72 1614.05 1174.24 1642.81L1174.24 1642.83C1189.49 1701.13 1205.92 1763.94 1223.03 1819.83C1228.24 1836.85 1233.82 1852.94 1239.52 1868.02C995.39 1779.26 825.227 1583.17 821.847 1275.53C821.847 1187.41 837.284 1097.67 865.489 1013.9C867.605 1007.62 869.792 1001.37 872.05 995.157ZM963.273 1832.78C952.39 1826 950.558 1813.44 951.412 1799.54C954.614 1806.57 965.076 1821.59 981.304 1825.46L970.598 1834.7C967.448 1834.43 964.938 1833.82 963.273 1832.78ZM865.232 1796.16C848.554 1776.33 838.374 1761.6 835.369 1756.72C842.131 1760.1 858.809 1771.14 871.431 1788.27C885.942 1807.97 900.453 1824.89 907.511 1829.41C908.107 1829.79 908.65 1830.08 909.136 1830.28C908.619 1830.07 908.048 1829.83 907.43 1829.54C898.804 1825.6 880.764 1814.63 865.232 1796.16ZM954.801 1771.37C954.912 1770.42 955.016 1769.48 955.11 1768.55L1026.94 1823.77C1018.3 1821.51 997.08 1814.42 981.304 1804.05C965.527 1793.68 957.062 1777.94 954.801 1771.37ZM883.263 1796.16C879.209 1791.66 860.938 1768.02 852.291 1756.74L852.272 1756.72C853.502 1756.72 855.046 1757.09 856.831 1757.77C869.767 1762.7 895.334 1783.78 905.237 1796.16C910.421 1802.64 913.619 1809.31 915.471 1814.66C914.482 1816.72 913.442 1818.76 912.371 1820.78C903.264 1814.54 887.318 1800.67 883.263 1796.16ZM887.771 1763.48C892.842 1762.35 905.125 1761.79 913.689 1768.55C922.254 1775.31 921.766 1787.9 920.451 1793.34L887.771 1763.48ZM852.272 1673.89C824.776 1644.05 786.725 1556.28 771.136 1516.12C804.943 1585.43 831.988 1624.87 852.272 1652.48C868.5 1674.57 899.979 1711.94 913.689 1727.87C912.215 1727.61 910.711 1727.36 909.182 1727.12C901.669 1721.81 879.769 1703.73 852.272 1673.89ZM825.228 1695.87C799.985 1675.58 765.877 1598.01 751.979 1561.76L869.177 1724.6C865.045 1723.47 850.47 1716.15 825.228 1695.87ZM661.464 1624.87C673.417 1614.35 701.718 1594.11 719.298 1597.26C741.272 1601.2 754.796 1610.22 771.136 1641.21C787.476 1672.2 807.197 1708.43 825.228 1717.36C818.086 1716.48 811.089 1715.54 804.379 1714.48C795.551 1709.96 772.037 1687.86 748.598 1635.58C752.73 1651.24 766.064 1688.28 786.349 1711.19C755.473 1704.83 725.156 1695.81 705.212 1687.98C688.684 1681.59 655.628 1663.3 655.628 1641.21C655.628 1636.81 657.788 1631.21 661.464 1624.87ZM741.272 1567.4C750.1 1593.13 773.502 1651.35 796.491 1678.4C790.105 1660.37 770.121 1612.92 741.272 1567.4ZM2231.04 1242.85C2271.61 1152.7 2539.82 1227.07 2553.9 1267.08C2559.54 1292.43 2541.51 1305.39 2516.15 1308.77C2512.82 1309.22 2509.4 1309.56 2505.97 1309.9L2505.96 1309.9L2505.96 1309.9L2505.95 1309.9C2485.22 1311.97 2464.16 1314.07 2459.81 1339.2C2457.73 1351.18 2459.29 1366.6 2463.75 1379.77C2465.7 1385.52 2467.63 1391.15 2469.51 1396.66C2489.98 1456.45 2505.81 1502.71 2497.56 1552.75C2492.01 1586.36 2478.96 1622.05 2429.38 1644.59C2394.56 1660.42 2350.5 1674.45 2293.02 1651.35C2273.17 1643.37 2256.39 1636.06 2241.76 1629.68L2241.74 1629.67L2241.73 1629.67L2241.7 1629.65L2241.66 1629.63C2219.42 1619.94 2202.13 1612.4 2186.53 1607.97C2160.42 1600.55 2141.39 1601.2 2134.69 1603.46C2162.3 1562.33 2175.47 1550.35 2215.83 1552.18C2226.41 1552.67 2239.01 1554.52 2252.17 1556.45C2285.24 1561.31 2321.89 1566.7 2339.23 1552.18C2363.46 1531.9 2308.8 1420.34 2258.09 1344.83C2220.9 1284.54 2223.91 1251.68 2231.04 1242.85ZM518.915 1203.9C504.762 1186.56 491.445 1170.25 486.027 1152.7C526.596 1154.95 587.848 1160.76 611.678 1171.29C620.36 1175.13 629.979 1180.74 639.814 1187.88C660.706 1212.94 662.751 1232.17 660.135 1237.21C635.259 1256.65 651.629 1349.84 660.769 1401.87C662.756 1413.18 664.401 1422.55 665.206 1428.79C668.778 1456.47 655.256 1464.84 649.17 1468.4C627.81 1477.2 602.795 1478.82 576.755 1480.5H576.743C570.777 1480.88 564.756 1481.27 558.714 1481.75C545.627 1482.79 532.292 1483.32 519.436 1483.82C486.983 1485.1 457.547 1486.25 442.643 1495.28C412.347 1513.62 409.398 1546.55 409.398 1573.6C397.988 1564.12 371.193 1546.73 339.906 1526.43L339.895 1526.42L339.893 1526.42L339.889 1526.42C287.561 1492.46 222.675 1450.35 196.191 1423.48C202.57 1419.03 217.479 1415.61 236.9 1411.16L236.901 1411.16L236.903 1411.16L236.914 1411.16C239.843 1410.49 242.875 1409.79 245.996 1409.07C255.065 1406.96 264.651 1405.34 274.026 1403.77C294.809 1400.27 314.571 1396.94 325.443 1388.78C340.191 1377.72 340.168 1365.17 340.103 1329.53L340.101 1328.59L340.098 1327.09L340.096 1325.22L340.095 1325.09V1325.08V1325.06V1325.05C340.094 1323.97 340.093 1322.86 340.093 1321.73C340.093 1270.94 340.093 1206.23 346.291 1201.15C385.169 1192.7 397.949 1226.9 402.073 1258.06C405.391 1283.13 403.797 1314.72 402.672 1337.04C402.077 1348.82 401.614 1358.02 402.073 1362.3C403.401 1374.7 427.428 1391.6 457.291 1395.54C487.154 1399.49 504.77 1395.69 528.85 1376.95C550.871 1359.81 562.937 1334.14 564.348 1304.26C566.343 1262 541.558 1231.64 518.915 1203.9ZM717.607 1510.49C702.225 1486.06 707.589 1473.91 716.635 1465.98C716.396 1470.67 716.932 1483.1 720.988 1495.28C725.045 1507.45 725.71 1519.13 725.536 1523.45C723.005 1519.21 720.284 1514.74 717.607 1510.49ZM719.205 1463.89C719.793 1463.45 720.389 1463.02 720.988 1462.6C723.993 1465.41 730.004 1475.89 730.004 1495.28C726.374 1494.26 719.131 1486.56 719.205 1463.89ZM1338.43 621.514C1378.35 617.058 1441.68 609.989 1490.67 614.034C1552.08 619.105 1602.23 624.177 1633.22 650.096C1658.01 670.831 1669.18 691.484 1671.67 699.219L1671.67 699.248L1671.67 699.262C1673.53 711.232 1675.07 721.155 1675.48 727.851C1676.7 748.082 1665.77 781.856 1651.77 825.101C1643.59 850.383 1634.36 878.904 1625.89 909.848C1618.83 935.659 1610.07 970.791 1600.03 1011.03L1600.02 1011.05L1600.02 1011.08L1600.01 1011.09L1600 1011.16L1599.98 1011.21L1599.97 1011.25C1584.6 1072.86 1566.25 1146.44 1546.45 1216.93C1518.27 1317.22 1487.85 1402.31 1439.96 1453.02C1408.97 1414.7 1363.89 1317.22 1339.66 1243.98C1328.22 1209.4 1317.29 1172.93 1305.25 1132.81L1305.24 1132.77L1305.23 1132.74L1305.22 1132.71C1303.55 1127.12 1301.85 1121.45 1300.12 1115.7C1288.02 1075.42 1274.65 1031.39 1258.52 981.97C1252.5 963.507 1246.41 945.985 1240.58 929.184C1214.62 854.482 1193.57 793.883 1204.43 726.724C1205.6 719.486 1206.69 712.341 1207.66 705.313C1207.78 704.211 1207.95 702.989 1208.16 701.668C1210.38 687.91 1217.84 663.454 1234.29 652.349C1256.83 637.136 1281.06 626.994 1313.18 624.177C1319.67 623.607 1328.3 622.644 1338.43 621.514ZM693.942 1428.79C680.42 1363.43 677.415 1266.33 677.603 1225.95C690.705 1233.28 693.57 1254.76 700.256 1304.89L700.256 1304.89L700.268 1304.98C700.765 1308.71 701.285 1312.61 701.831 1316.66C708.142 1363.54 699.201 1410.95 693.942 1428.79ZM693.942 1108.18C697.098 1091.96 706.526 1083.59 710.846 1081.43C714.643 1080.47 718.406 1079.53 722.115 1078.6C711.41 1126.78 687.746 1183.2 686.617 1184.97C685.693 1184.39 684.753 1183.8 683.8 1183.21C687.491 1173.52 688.985 1155.96 690.422 1139.05L690.422 1139.04C691.398 1127.56 692.348 1116.38 693.942 1108.18ZM2245.69 900.832C2347.11 844.487 2441.21 891.253 2475.58 921.68C2458.65 930.308 2438.72 936.489 2418.6 942.729C2367.78 958.495 2315.75 974.636 2307.67 1031.55C2305.59 1070.49 2336.1 1102.34 2364.02 1131.49C2381.35 1149.58 2397.68 1166.63 2404.59 1183.69C2324.01 1183.69 2247.38 1138.78 2210.2 1105.93C2173.01 1073.08 2118.92 971.264 2245.69 900.832ZM662.952 1171.29C651.232 1131.62 667.836 1100.48 677.603 1089.87L680.983 1089L667.46 1173.73C665.986 1172.92 664.484 1172.11 662.952 1171.29ZM644.922 1098.41C652.176 1096.47 659.742 1094.49 667.46 1092.49C661.45 1103.74 650.782 1134.53 656.191 1167.65C612.268 1143.83 586.563 1126.94 580.125 1118.89C584.306 1115.35 611.248 1107.41 644.922 1098.41ZM509.578 618.508C518.696 587.947 551.628 568.864 565.333 567.517C612.988 644.204 651.834 711.757 686.617 792.649C686.663 792.755 716.002 860.032 715.354 900.832C714.503 954.337 686.617 1005.63 670.277 1030.43C662.462 1042.28 640.181 1058.38 628.866 1065.46C597.616 1075.02 559.769 1088.04 532.231 1099.73C525.941 1102.4 520.169 1105.3 514.494 1108.16L514.48 1108.16C493.727 1118.59 474.247 1128.38 435.317 1123.96C438.698 1083.39 464.208 1066.31 509.77 1052.29C519.404 1049.33 529.041 1047.04 538.489 1044.8L538.501 1044.8C573.733 1036.45 606.336 1028.72 626.328 988.731C648.025 945.338 602.188 872.087 578.367 834.018C574.351 827.6 570.961 822.182 568.626 818.076C555.06 794.223 542.483 761.08 533.91 738.488L533.901 738.464C532.25 734.112 530.747 730.152 529.414 726.725C528.549 724.502 527.523 721.975 526.391 719.189C516.723 695.398 499.375 652.705 509.578 618.508ZM686.054 1051.27C687.719 1030 699.66 974.326 734.045 919.678L734.187 920.113L734.511 921.117C735.662 924.682 737.132 927.528 738.815 929.873C738.498 939.133 735.222 953.875 725.496 975.978C707.916 1015.93 691.876 1042.82 686.054 1051.27ZM753.31 1017.47C744.332 1029.6 731.671 1039.58 714.79 1043.39L750.852 944.218C756.643 945.896 766.438 951.771 769.535 963.363C770.505 966.992 770.818 971.182 770.146 975.978C768.326 988.99 762.934 1004.47 753.31 1017.47ZM773.39 903.649C775.645 896.886 868.016 759.568 881.572 770.111C898.166 783.018 849.745 850.599 812.54 902.525C804.265 914.074 796.545 924.849 790.219 934.076C787.266 930.293 783.917 926.703 780.151 923.37C777.146 919.05 771.587 909.058 773.39 903.649ZM1350.93 537.404C1402.77 534.587 1486.72 530.643 1563.35 550.928C1624.65 567.155 1649.37 580.602 1654.07 585.298C1636.79 586.612 1593.78 587.327 1559.97 579.664C1551.61 577.769 1542.36 575.498 1532.5 573.075C1492.51 563.254 1442.32 550.928 1399.39 550.928C1369.05 550.928 1334.72 558.531 1304.52 565.221L1304.52 565.221C1281.44 570.333 1260.77 574.912 1246.13 575.156C1243.35 575.202 1240.77 575.249 1238.37 575.292H1238.35C1214.47 575.72 1207.76 575.84 1198.75 572.607C1197.61 572.198 1196.43 571.735 1195.18 571.212C1199.77 565.389 1214.57 552.843 1237.11 549.237C1257.51 545.974 1280.85 542.711 1311.85 540.089C1323.68 539.089 1336.62 538.182 1350.93 537.404ZM1371.78 493.455C1447.28 488.384 1544.19 506.414 1584.2 515.489C1616.2 522.749 1657.82 541.764 1674.63 550.364C1669.01 551.246 1659.28 551.989 1646.51 551.812C1626.65 551.537 1599.45 549.032 1568.99 541.349C1555.63 537.98 1542.95 534.561 1530.81 531.288L1529.61 530.964C1527.43 530.377 1525.27 529.795 1523.12 529.219C1481.75 518.102 1446.59 509.253 1412.35 510.923C1373.8 512.803 1322.69 521.352 1280.64 528.387L1280.63 528.389L1280.21 528.459L1280.21 528.459L1280.19 528.462C1272 529.831 1264.16 531.142 1256.83 532.334C1245.53 534.17 1235.41 536.074 1226.04 537.836C1198.02 543.103 1176.8 547.093 1151.47 544.149C1199.36 510.889 1296.27 498.526 1371.78 493.455ZM773.39 833C756.501 856.2 759.093 881 762.5 890.5C775.5 869.3 805.6 820.22 822 793.5C838.4 766.78 850.833 744.367 855 736.5C838 749.092 794.5 804 773.39 833Z" fill="#0C090A"/>
<path fill-rule="evenodd" clip-rule="evenodd" d="M340.095 1325.08V1325.06V1325.05V1325.04V1325.03C340.094 1323.95 340.093 1322.85 340.093 1321.73C340.093 1322.87 340.094 1323.98 340.095 1325.08Z" fill="#0C090A"/>
<path d="M929.471 871.21C907.124 909.989 887.855 951.672 872.05 995.157C869.792 1001.37 867.605 1007.62 865.489 1013.9C837.284 1097.67 821.847 1187.41 821.847 1275.53C825.227 1583.17 995.39 1779.26 1239.52 1868.02C1233.82 1852.94 1228.24 1836.85 1223.03 1819.82C1205.92 1763.94 1189.49 1701.13 1174.24 1642.83L1174.24 1642.82L1174.24 1642.81C1166.72 1614.05 1159.48 1586.39 1152.59 1561.2C1143.49 1527.9 1132.86 1486.47 1121.23 1441.16L1121.21 1441.1L1121.21 1441.08L1121.2 1441.04C1107.23 1386.59 1091.81 1326.54 1075.87 1268.2C1045.16 1155.8 1014.98 1050.39 997.08 1005.63C992.842 995.039 989.131 985.234 985.628 975.978L985.626 975.974C971.029 937.406 960.034 908.354 929.471 871.21Z" fill="#E70101"/>
<path d="M1593.27 1954.68L1593.26 1954.68C1567.92 1956.47 1551.97 1959.75 1542.86 1962.65C1545.91 1962.27 1548.96 1961.88 1552 1961.47C1565.88 1959.6 1579.64 1957.33 1593.27 1954.68Z" fill="#E70101"/>
<path d="M1719.43 1908.85C1697.45 1916.55 1652.04 1933.87 1646.18 1941.53C1653.88 1938.9 1672.55 1932.85 1685.62 1929.7C1698.69 1926.54 1713.61 1914.48 1719.43 1908.85Z" fill="#E70101"/>
<path d="M2176 1247C2176 1194.36 2170.35 1143.04 2159.64 1093.61L2159.64 1093.6C2149.59 1074.61 2142.69 1056.09 2141.54 1026.2C2109.16 925.526 2055.25 834.503 1985.21 758.551C1984.51 761.83 1983.78 765.121 1983.02 768.421C2003.71 814.436 2049.27 915.256 2065.95 950.416C2082.63 985.575 2090.93 1020.28 2093 1033.24C2089.39 1017.92 2078.35 1005.45 2073.28 1001.13L2065.95 1015.78C2033.05 924.272 1983.87 858.949 1963.4 837.726C1978.43 864.164 2012.54 925.068 2028.76 957.178C2049.05 997.315 2068.77 1074.38 2073.28 1133.54C2076.88 1180.87 2068.39 1228.39 2063.7 1246.23C2049.98 1230.66 2037.48 1152.16 2026.85 1085.35C2021.32 1050.62 2016.29 1019.05 2011.86 1001.13C2001.49 959.206 1960.91 916.045 1941.91 899.705C1939.77 905.599 1937.66 911.384 1935.6 917.04L1935.6 917.055L1935.59 917.077C1928.13 937.531 1921.3 956.292 1916.07 972.391C1888.46 1057.47 1702.52 1529.65 1702.52 1529.65C1678.82 1590.06 1655.38 1649.08 1631.04 1710.42L1631.03 1710.43L1631.01 1710.47L1631.01 1710.5L1630.98 1710.55L1630.98 1710.56L1630.88 1710.82L1630.86 1710.86C1607.96 1768.56 1584.24 1828.31 1558.71 1893.19C1603.26 1893.19 1648.81 1882.06 1693.74 1861.77C1700.93 1858.52 1708.1 1855.04 1715.25 1851.33C1793.15 1810.94 1868.42 1743.65 1932.57 1659.8C2020.92 1544.33 2088.18 1397.46 2112.16 1246.23C2118.17 1276.84 2112.15 1484.01 1970.73 1668.82L1971.29 1668.36C1995.3 1648.64 2056.11 1569.01 2112.37 1403.33C2104.29 1446.24 2077.1 1541.17 2028.19 1615.88C2020.97 1626.91 2013.27 1637.49 2005.1 1647.41C1997.35 1656.8 1989.29 1666.42 1981.05 1676.14L1980.42 1676.88C1921.17 1746.65 1852.61 1821.19 1822.54 1853.07C1830.2 1854.26 1841.66 1852.09 1855.24 1846.65C1892.31 1821.86 1926.95 1793.73 1958.73 1762.69C1959.93 1761.1 1961.11 1759.48 1962.28 1757.84C1963.42 1756.34 1965.61 1753.08 1968.57 1748.52C1984.31 1724.28 2021.97 1663.12 2041.72 1630.83L2041.88 1630.51C2067.29 1577.85 2119.04 1462.28 2123.99 1418.65C2124.55 1453.08 2113.62 1542.77 2065.41 1626.07L2065.39 1626.1L2065.46 1626.09C2066.54 1625.9 2067.63 1625.7 2068.71 1625.49C2136.74 1515.48 2176 1385.82 2176 1247Z" fill="#E70101"/>
<path d="M1338.42 621.515C1328.3 622.644 1319.67 623.607 1313.18 624.177C1281.06 626.994 1256.83 637.136 1234.29 652.349C1217.84 663.454 1210.38 687.91 1208.16 701.668C1207.95 702.989 1207.78 704.211 1207.66 705.313C1206.69 712.341 1205.6 719.487 1204.43 726.725C1193.57 793.883 1214.62 854.482 1240.58 929.184C1246.41 945.985 1252.5 963.507 1258.52 981.97C1274.65 1031.39 1288.02 1075.42 1300.12 1115.7C1301.85 1121.45 1303.55 1127.12 1305.22 1132.71L1305.23 1132.74L1305.24 1132.77L1305.24 1132.77L1305.25 1132.81C1317.29 1172.93 1328.22 1209.4 1339.66 1243.97C1363.89 1317.22 1408.97 1414.7 1439.96 1453.02C1487.85 1402.31 1518.27 1317.22 1546.45 1216.93C1566.25 1146.44 1584.6 1072.86 1599.97 1011.25L1599.98 1011.21L1600 1011.16L1600.01 1011.09L1600.02 1011.08L1600.02 1011.05L1600.03 1011.03C1610.07 970.791 1618.83 935.659 1625.89 909.848C1634.36 878.904 1643.59 850.383 1651.77 825.101C1665.77 781.856 1676.7 748.082 1675.48 727.852C1675.07 721.153 1673.53 711.224 1671.67 699.248L1671.67 699.242L1671.67 699.219C1669.18 691.484 1658.01 670.831 1633.22 650.096C1602.23 624.177 1552.08 619.105 1490.67 614.034C1441.68 609.989 1378.35 617.058 1338.43 621.514L1338.42 621.515Z" fill="#E70101"/>
<path d="M1311.79 540.184C1272.86 547.985 1235.07 558.916 1198.68 572.703C1207.69 575.936 1214.41 575.816 1238.28 575.388H1238.3C1240.71 575.345 1243.29 575.298 1246.06 575.252C1260.7 575.008 1281.37 570.429 1304.45 565.317C1334.65 558.627 1368.98 551.024 1399.32 551.023C1442.25 551.023 1492.44 563.349 1532.43 573.171C1542.3 575.594 1551.54 577.864 1559.9 579.76C1593.71 587.423 1636.72 586.708 1654 585.394C1649.3 580.698 1624.59 567.251 1563.28 551.023C1486.65 530.739 1402.7 534.683 1350.86 537.5C1336.55 538.278 1323.61 539.184 1311.79 540.184Z" fill="#E70101"/>
<path d="M1925.65 796.594C1933.06 776.721 1939.62 746.601 1940.43 714.039C1941.57 668.127 1931.28 617.358 1895.79 583.608C1855.04 544.864 1790.42 535.714 1762.81 544.73C1748.02 549.559 1732.1 556.33 1721.54 576.996C1712.39 594.906 1707.27 623.253 1710.41 669.816C1715.53 745.744 1710.87 819.942 1693.51 922.807C1672.43 1047.68 1633.95 1182.25 1608.99 1250.74C1540.81 1437.8 1470.94 1493.02 1439.39 1513.31C1417.42 1503.91 1340.22 1434.42 1276.55 1233.83C1249.81 1149.59 1228.44 1076.19 1210.17 1012.66C1207.56 1003.59 1205.02 994.717 1202.53 986.043L1202.53 986.042C1188.39 936.741 1176.09 893.859 1164.43 856.883C1136.35 767.857 1143.56 728.433 1149.78 705.314C1152.67 694.565 1155.56 686.503 1158.05 679.564C1163.79 663.584 1167.4 653.553 1163.86 630.375C1162.22 619.631 1153.88 608.18 1140.81 597.525C1113.46 575.215 1065.45 556.398 1015.11 554.872C940.735 552.618 887.207 570.649 863.542 607.837C844.018 638.518 871.667 673.033 896.812 704.423C902.144 711.08 907.366 717.599 911.999 723.908C918.015 732.1 923.857 740.669 929.504 749.47L930.631 751.233L931.81 753.093C956.498 792.207 977.339 835.458 992.573 870.406C1005.59 900.27 1058.9 1040.62 1091.18 1152.7C1130.14 1287.97 1168.88 1435.18 1192.59 1525.28C1199.39 1551.14 1204.96 1572.3 1208.94 1587.12C1241.62 1708.82 1258.15 1762.49 1314.3 1929.7C1317.33 1938.7 1320.55 1947.26 1323.93 1955.35C1347.64 2012.06 1378.96 2045.42 1401.64 2042.95C1427.56 2040.13 1448.97 2006.33 1477.14 1956.18C1532.86 1857 1557.72 1794.46 1596.95 1695.72L1596.96 1695.71C1608.39 1666.94 1621.04 1635.1 1636.04 1598.39C1716.17 1402.16 1781.55 1212.04 1842.62 1034.42C1870.87 952.259 1898.2 872.773 1925.65 796.594Z" fill="white"/>
<path d="M565.333 567.518C551.629 568.864 518.696 587.947 509.578 618.508C499.375 652.705 516.723 695.398 526.391 719.19C527.523 721.975 528.549 724.502 529.414 726.726C530.747 730.152 532.25 734.112 533.901 738.464L533.91 738.488C542.483 761.081 555.06 794.223 568.626 818.076C570.961 822.182 574.351 827.601 578.367 834.019C602.188 872.087 648.025 945.338 626.328 988.732C606.336 1028.72 573.733 1036.45 538.501 1044.8L538.489 1044.8C529.041 1047.04 519.404 1049.33 509.771 1052.29C464.208 1066.31 438.698 1083.39 435.317 1123.96C474.247 1128.38 493.727 1118.59 514.48 1108.16L514.494 1108.16C520.17 1105.3 525.941 1102.4 532.231 1099.73C559.769 1088.04 597.616 1075.02 628.866 1065.46C640.181 1058.38 662.462 1042.28 670.277 1030.43C686.617 1005.63 714.503 954.337 715.354 900.832C716.002 860.033 686.663 792.755 686.617 792.65C651.834 711.758 612.988 644.204 565.333 567.518Z" fill="white"/>
<path d="M734.045 919.678C699.66 974.326 687.719 1030 686.054 1051.27C691.876 1042.82 707.916 1015.93 725.496 975.979C735.222 953.875 738.498 939.133 738.815 929.873C737.132 927.528 735.662 924.682 734.511 921.117L734.187 920.113L734.045 919.678Z" fill="white"/>
<path d="M714.79 1043.39C731.671 1039.58 744.332 1029.6 753.31 1017.47C762.934 1004.47 768.326 988.99 770.146 975.979C770.818 971.182 770.505 966.992 769.535 963.363C766.438 951.771 756.643 945.896 750.852 944.218L714.79 1043.39Z" fill="white"/>
<path d="M486.027 1152.7C491.445 1170.25 504.762 1186.56 518.915 1203.9L518.916 1203.9C541.559 1231.64 566.344 1262 564.348 1304.26C562.937 1334.14 550.871 1359.81 528.85 1376.95C504.77 1395.69 487.154 1399.49 457.291 1395.55C427.428 1391.6 403.401 1374.7 402.073 1362.3C401.614 1358.02 402.077 1348.82 402.672 1337.04L402.672 1337.03C403.798 1314.71 405.391 1283.13 402.073 1258.06C397.949 1226.9 385.169 1192.7 346.291 1201.15C340.093 1206.23 340.093 1270.94 340.093 1321.73C340.093 1322.87 340.094 1323.99 340.096 1325.09L340.096 1325.22C340.097 1326.37 340.099 1327.49 340.101 1328.59L340.103 1329.53C340.168 1365.17 340.191 1377.72 325.443 1388.78C314.571 1396.94 294.809 1400.27 274.026 1403.77L274.022 1403.77C264.647 1405.35 255.065 1406.96 245.996 1409.07C242.875 1409.79 239.843 1410.49 236.914 1411.16L236.903 1411.16C217.481 1415.61 202.57 1419.03 196.191 1423.48C222.677 1450.35 287.566 1492.46 339.895 1526.42L339.906 1526.43C371.193 1546.73 397.988 1564.12 409.398 1573.6C409.398 1546.55 412.347 1513.62 442.643 1495.28C457.547 1486.25 486.983 1485.1 519.436 1483.82L519.441 1483.82C532.298 1483.32 545.627 1482.79 558.714 1481.75C564.756 1481.27 570.777 1480.88 576.743 1480.5H576.755C602.795 1478.82 627.81 1477.2 649.17 1468.4C655.257 1464.84 668.778 1456.47 665.206 1428.79C664.401 1422.55 662.756 1413.18 660.769 1401.87L660.768 1401.87C651.628 1349.84 635.259 1256.65 660.135 1237.21C662.751 1232.17 660.706 1212.94 639.814 1187.88C629.979 1180.74 620.36 1175.13 611.678 1171.29C587.848 1160.76 526.596 1154.95 486.027 1152.7Z" fill="white"/>
<path d="M677.603 1225.95C677.415 1266.33 680.42 1363.43 693.942 1428.79C699.201 1410.95 708.142 1363.54 701.831 1316.66C701.285 1312.61 700.765 1308.71 700.268 1304.98L700.256 1304.89L700.255 1304.89C693.57 1254.76 690.706 1233.28 677.603 1225.95Z" fill="white"/>
<path d="M646.612 1490.77C621.82 1489.64 591.394 1509.93 569.419 1532.46C527.759 1575.19 506.876 1598.39 482.084 1647.97C462.403 1687.33 455.039 1732.49 483.211 1758.41C523.976 1795.91 553.569 1812.59 605.48 1833.91C637.033 1846.87 666.897 1856.45 684.364 1862.65C681.547 1877.3 673.094 1896.45 666.896 1926.32C660.699 1956.18 660.699 1958.43 656.191 1994.5C736.202 2001.26 833.82 1908.85 896.786 1845.74L896.87 1845.63L895.659 1844.62L796.491 1763.48C763.326 1739.04 706.324 1702.9 659.024 1679.54C657.941 1679.14 656.869 1678.74 655.808 1678.35C641.306 1673.04 628.875 1669.36 619.567 1668.26C602.1 1625.43 649.429 1563.45 699.014 1534.72C696.473 1524.77 691.943 1516.25 685.963 1509.43C680.208 1503.06 672.464 1497.22 662.331 1493.68C657.356 1492 652.08 1491.02 646.612 1490.77Z" fill="white"/>
<path d="M835.369 1756.72C838.374 1761.6 848.554 1776.33 865.232 1796.16C880.764 1814.63 898.804 1825.6 907.43 1829.54C908.048 1829.83 908.619 1830.07 909.136 1830.28C908.65 1830.08 908.107 1829.79 907.511 1829.41C900.453 1824.89 885.942 1807.97 871.431 1788.27C858.809 1771.14 842.131 1760.1 835.369 1756.72Z" fill="white"/>
<path d="M957.075 1874.48C963.231 1888.33 995.076 1908.72 1019.87 1924.59L1019.9 1924.62L1019.96 1924.65C1022.36 1926.19 1024.7 1927.69 1026.94 1929.13C1047.23 1942.21 1065.82 1959.75 1072.58 1966.89C1059.44 1959.19 1028.86 1941.19 1011.73 1930.83C990.319 1917.87 944.68 1887.44 940.172 1881.8L940.159 1881.79C898.068 1893.7 853.875 1915.13 826.918 1952.8C866.36 1957.31 949.75 1952.24 984.121 1988.86C1018.49 2025.49 980.74 2112.82 961.02 2182.13C1017.93 2178.75 1110.33 2148.88 1137.38 2034.5C1137.84 2032.54 1138.3 2030.57 1138.74 2028.61C1138.9 2027.13 1139 2025.86 1139 2025C1139 2011 1137.97 2005.2 1134.5 1995.5C1125.62 1970.64 1097.94 1947.73 1091.18 1944.35C1084.41 1940.97 1064.13 1930.82 1049.48 1924.63C1039.33 1920.33 1031.62 1915.5 1023.33 1910.31L1023.31 1910.29C1019.65 1908 1015.87 1905.63 1011.73 1903.22C1000.91 1896.91 970.786 1881.43 957.075 1874.48Z" fill="white"/>
<path d="M981.304 1862.65C979.613 1878.42 999.898 1893.07 1010.04 1899.84C1018.47 1905.45 1032.33 1911.46 1044.86 1916.88L1044.91 1916.9C1047.45 1918 1049.93 1919.08 1052.3 1920.12C1060.13 1923.56 1067.96 1928.05 1075.2 1932.33C1076.21 1932.92 1077.21 1933.51 1078.19 1934.1L1078.27 1934.14L1078.3 1934.16C1082.93 1936.9 1087.28 1939.48 1091.18 1941.53C1099.74 1946.04 1129.68 1957.68 1143.58 1962.94C1141.76 1958.4 1082.81 1924.92 1046.74 1904.44L1046.65 1904.39L1046.27 1904.17C1037.81 1899.37 1030.64 1895.3 1025.82 1892.51C1005.53 1880.79 987.69 1867.72 981.304 1862.65Z" fill="white"/>
<path d="M1042.73 1875.3C1032.71 1866.1 1021.1 1855.44 1001.02 1862.65C1015.49 1871.66 1046.66 1890.26 1055.68 1892.51C1064.69 1894.76 1066.95 1894.2 1066.95 1893.64C1063.38 1891.57 1054.1 1885.52 1045.54 1877.86C1044.62 1877.04 1043.69 1876.19 1042.75 1875.32L1042.73 1875.3Z" fill="white"/>
<path d="M1109.77 1916.74C1115.97 1922.37 1129.38 1933.08 1133.44 1930.83C1138.51 1928.01 1126.67 1922.94 1109.77 1916.74Z" fill="white"/>
<path d="M852.291 1756.74C860.938 1768.02 879.209 1791.66 883.263 1796.16C887.318 1800.67 903.264 1814.54 912.371 1820.78C913.442 1818.76 914.482 1816.72 915.471 1814.66C913.619 1809.31 910.421 1802.64 905.237 1796.16C895.334 1783.78 869.767 1762.7 856.831 1757.77C855.046 1757.09 853.502 1756.72 852.272 1756.72L852.291 1756.74Z" fill="white"/>
<path d="M913.689 1768.55C905.125 1761.79 892.842 1762.35 887.771 1763.48L920.451 1793.34C921.766 1787.9 922.254 1775.31 913.689 1768.55Z" fill="white"/>
<path d="M893.607 2283.09C931.358 2326.48 904.876 2393.53 832.152 2404.11C812.469 2381.7 811.342 2303.94 893.607 2283.09Z" fill="white"/>
<path d="M2097.5 2032.25C2006.79 1975.34 1830.43 1869.97 1768.45 1916.18C1756.19 1925.31 1740.84 1938.15 1740.84 1976.46C1724.75 2032.48 1703.32 2086.62 1681.9 2140.76C1655.64 2207.11 1629.38 2273.46 1612.94 2343.27C1623.64 2351.91 1660.49 2361.42 1688.44 2346.09C1723.37 2326.93 1740.84 2288.05 1749.85 2267.21C1758.87 2246.36 1778.03 2194.52 1786.48 2162.97C1787.07 2160.75 1787.74 2158.21 1788.47 2155.41C1798.16 2118.38 1820.04 2034.8 1855.78 2018.16C1875.3 2009.08 1895.9 2006.55 1923.4 2013.09C1941.75 2017.45 1971.57 2028.07 1993.67 2035.93L1994.39 2036.19C1998.33 2037.59 2002.65 2039.24 2007.22 2040.99L2007.22 2040.99C2041.31 2054.03 2089.56 2072.49 2097.5 2032.25Z" fill="white"/>
<path d="M2163.43 1642.34C2134.2 1635.16 2103.4 1638.54 2076.25 1651.98C2071.62 1654.28 2067.09 1656.87 2062.7 1659.75C2059.97 1661.53 2057.3 1663.43 2054.68 1665.44C2023.13 1689.67 2005.1 1731.93 1999.46 1782.07C1993.83 1832.22 2000.59 1878.99 2010.17 1903.22L2010.6 1904.3C2020.34 1928.96 2040.24 1979.37 2091.87 1984.92C2091.87 1953.93 2092.62 1863.08 2143.14 1816.44C2165.12 1796.16 2188.68 1791.22 2216.39 1794.47C2246.7 1798.02 2268.23 1815.32 2276.68 1837.86C2285.14 1860.39 2287.95 1881.81 2282.32 1899.84C2278.76 1911.22 2264.86 1929.13 2251.42 1946.45L2251.41 1946.46L2251.41 1946.46C2243.57 1956.57 2235.88 1966.47 2230.48 1974.77C2215.83 1997.31 2207.94 2016.47 2217.52 2024.92C2227.1 2033.37 2273.3 2000.13 2301.48 1957.87C2324.01 1924.06 2342.61 1922.37 2361.2 1922.94C2379.8 1923.5 2412.48 1946.6 2437.27 1969.14C2451.77 1982.32 2472.95 1995.81 2481.78 1997.31C2481.78 1959.01 2466.77 1884.56 2454.81 1825.23L2454.81 1825.22C2447.95 1791.16 2442.09 1762.09 2440.65 1747.7C2437.64 1748.74 2434.09 1750.13 2430.12 1751.69C2410.3 1759.46 2379.76 1771.44 2351.06 1764.61C2335.4 1760.88 2311.1 1739.63 2289.93 1721.11L2289.92 1721.11C2279.1 1711.64 2269.09 1702.89 2261.47 1697.56C2260.19 1696.66 2258.29 1695.25 2255.88 1693.46C2239.38 1681.21 2198.7 1651 2163.43 1642.34Z" fill="white"/>
<path d="M2553.9 1267.08C2539.82 1227.07 2271.61 1152.7 2231.04 1242.85C2223.91 1251.68 2220.9 1284.54 2258.09 1344.83C2308.8 1420.34 2363.46 1531.9 2339.23 1552.18C2321.89 1566.7 2285.24 1561.31 2252.17 1556.45C2239.01 1554.52 2226.41 1552.67 2215.83 1552.18C2175.47 1550.35 2162.3 1562.33 2134.69 1603.46C2141.39 1601.2 2160.42 1600.55 2186.53 1607.97C2202.13 1612.4 2219.42 1619.94 2241.66 1629.63L2241.7 1629.65C2256.35 1636.04 2273.14 1643.36 2293.02 1651.35C2350.5 1674.45 2394.56 1660.42 2429.38 1644.59C2478.96 1622.05 2492.01 1586.36 2497.56 1552.75C2505.81 1502.71 2489.98 1456.45 2469.51 1396.66L2469.51 1396.66C2467.63 1391.15 2465.7 1385.52 2463.75 1379.77C2459.29 1366.6 2457.73 1351.18 2459.81 1339.2C2464.16 1314.07 2485.22 1311.97 2505.95 1309.9L2505.96 1309.9C2509.39 1309.56 2512.82 1309.22 2516.15 1308.77C2541.51 1305.39 2559.54 1292.43 2553.9 1267.08Z" fill="white"/>
<path d="M2475.58 921.68C2441.21 891.253 2347.11 844.487 2245.69 900.832C2118.92 971.264 2173.01 1073.08 2210.2 1105.93C2247.38 1138.78 2324.01 1183.69 2404.59 1183.69C2397.68 1166.63 2381.35 1149.58 2364.02 1131.49C2336.1 1102.34 2305.59 1070.49 2307.67 1031.55C2315.75 974.636 2367.78 958.495 2418.6 942.73C2438.72 936.489 2458.65 930.308 2475.58 921.68Z" fill="white"/>
<path d="M2724.63 855.756C2655.89 816.314 2583.77 846.177 2596.16 905.34C2690.26 933.512 2721.25 881.675 2724.63 855.756Z" fill="white"/>
</svg>
